<svg class="animated" id="freepik_stories-positive-thinking" xmlns="http://www.w3.org/2000/svg" viewBox="0 0 500 500" version="1.1" xmlns:xlink="http://www.w3.org/1999/xlink" xmlns:svgjs="http://svgjs.com/svgjs"><style>svg#freepik_stories-positive-thinking:not(.animated) .animable {opacity: 0;}svg#freepik_stories-positive-thinking.animated #freepik--Floor--inject-347 {animation: 6s Infinite  linear floating;animation-delay: 0s;}svg#freepik_stories-positive-thinking.animated #freepik--sun-2--inject-347 {animation: 6s Infinite  linear floating;animation-delay: 0s;}svg#freepik_stories-positive-thinking.animated #freepik--Emoji--inject-347 {animation: 6s Infinite  linear floating;animation-delay: 0s;}svg#freepik_stories-positive-thinking.animated #freepik--Rainbow--inject-347 {animation: 6s Infinite  linear floating;animation-delay: 0s;}svg#freepik_stories-positive-thinking.animated #freepik--Stars--inject-347 {animation: 6s Infinite  linear heartbeat;animation-delay: 0s;}svg#freepik_stories-positive-thinking.animated #freepik--Hearts--inject-347 {animation: 6s Infinite  linear heartbeat;animation-delay: 0s;}svg#freepik_stories-positive-thinking.animated #freepik--Character--inject-347 {animation: 1.5s 1 forwards cubic-bezier(.36,-0.01,.5,1.38) slideLeft;animation-delay: 0s;}            @keyframes floating {                0% {                    opacity: 1;                    transform: translateY(0px);                }                50% {                    transform: translateY(-10px);                }                100% {                    opacity: 1;                    transform: translateY(0px);                }            }                    @keyframes heartbeat {                0% {                    transform: scale(1);                }                10% {                    transform: scale(1.1);                }                30% {                    transform: scale(1);                }                40% {                    transform: scale(1);                }                50% {                    transform: scale(1.1);                }                60% {                    transform: scale(1);                }                100% {                    transform: scale(1);                }            }                    @keyframes slideLeft {                0% {                    opacity: 0;                    transform: translateX(-30px);                }                100% {                    opacity: 1;                    transform: translateX(0);                }            }        </style><g id="freepik--Floor--inject-347" class="animable" style="transform-origin: 250px 312.95px;"><g id="freepik--Shrubbery--inject-347" class="animable" style="transform-origin: 250px 226.564px;"><g id="freepik--shrubbery--inject-347" class="animable" style="transform-origin: 250px 226.564px;"><g id="freepik--shrubbery--inject-347" class="animable" style="transform-origin: 250px 226.564px;"><path d="M490.28,266.71c6.58-4.69,6.53-16.85-1.83-19.46,5.77-5.78,4-18.24-4.34-19,2.05-5.11,1-12.11-5.53-13.4,2.08-6.26-3.72-10.61-9.53-8.36-.25-6.6-9.61-7-11.72-2.33.12-2.56-3.71-7.3-6.17-7.31,4.25-3.32,3.07-10-.57-10.86,5-3.75,2.3-12.32-3.61-12.24,4-6.25-4.49-12.77-9.75-10.85,3-7-10.92-12.61-13.93-5.17-5.32-8.76-23.57-3.6-21.13,7.79a4.34,4.34,0,0,0-3.23,7.74,6.3,6.3,0,0,0-8.57,1.87,3.36,3.36,0,0,0-2.8-4.4c5.78-2.35,1.73-10.94-3.61-10.61,5.05-6.48-5.19-14-10.63-8.87-2.53-6-11.57-4.69-11,2.28-2-3.63-5.94-3.38-9.18-1.43-4.46,2.68-3.86,7.45-1.41,11.32-1.85-2.21-7.5-3.43-8.36.23a4.42,4.42,0,0,0-6.38-.73c-1.67-6-12.41-6.78-14.44.61a5,5,0,0,0-4.82.07c-1.78,1-3.33,3.54-2.81,5.64-1.66-2-6.08-1.07-8.09-.2-3.56,1.54-3.26,4.32-4.3,7.39-2.38-1.44-4.23-1-6.53.59a7.46,7.46,0,0,0,0-3.39c-.42-1.54-2.07-2.7-3.44-3.35a9.85,9.85,0,0,0-6.22-.83,5.44,5.44,0,0,0-3.16,2.12c-2.83-4.71-15.39-1.36-11.05,4.39-2.73-.61-7,1.92-8.17,4.32-1.7,3.45.52,5.92,3,8-2.18-.06-3.19,2.09-3.42,4.41a5.12,5.12,0,0,0-1.72-2.11c-2.18-1.4-7.37-.17-7.21,3-.61-3.46-2.92-5.76-8.19-5.4-5.81.39-7.06,4.46-6.65,7.56-.58-2.06-1.85-5.61-4-7.17s-7.5-1.86-9.44.51c-.24-.15.27.11,0,0a12.41,12.41,0,0,0-2.12-7.22c-1.81-2.42-6.34-4.83-9.17-2.78,1.08-4.24.38-9.69-4.92-10.57-5.1-.85-12,6.26-13.23,10.81-.61-3.18-1.55-6.49-5-7.63a8,8,0,0,0-8.06,2.2c.53-2.64,1.86-5.64.43-8.18a5.06,5.06,0,0,0-6.87-2.18c-2-7.39-12.77-6.61-14.44-.61a4.42,4.42,0,0,0-6.38.73c-.86-3.66-6.51-2.44-8.36-.23,2.45-3.87,3-8.64-1.41-11.32-3.24-2-7.18-2.2-9.18,1.43.59-7-8.45-8.23-11-2.28-5.44-5.14-15.68,2.39-10.63,8.87-5.34-.33-9.39,8.26-3.61,10.61a3.36,3.36,0,0,0-2.8,4.4,6.3,6.3,0,0,0-8.57-1.87,4.34,4.34,0,0,0-3.23-7.74C100.27,154.12,82,149,76.7,157.72c-3-7.44-16.91-1.85-13.93,5.17-5.26-1.92-13.72,4.6-9.75,10.85-5.91-.08-8.56,8.49-3.61,12.24-3.64.89-4.82,7.54-.57,10.86-2.46,0-6.29,4.75-6.17,7.31-2.11-4.65-11.47-4.27-11.72,2.33-5.81-2.25-11.61,2.1-9.53,8.36-6.57,1.29-7.58,8.29-5.53,13.4-8.37.77-10.11,13.23-4.34,19C3.19,249.86,3.14,262,9.72,266.71c-4.36,2.08-4.79,12.2,2.31,15-4.62,4.13-4,13.07,3.21,13.68-3.66,7.55,6.56,13,13.31,8.9,1.64-.79,1.32-1,3-.12H468.43c1.7-.84,1.38-.67,3,.12,6.75,4.07,17-1.35,13.31-8.9,7.18-.61,7.83-9.55,3.21-13.68C495.07,278.91,494.64,268.79,490.28,266.71Z" style="fill: rgb(235, 235, 235); transform-origin: 250px 226.564px;" id="elpi37iqsj5z" class="animable"></path><path d="M71.22,177.62a6.66,6.66,0,0,1,10.7.92,6.69,6.69,0,0,1,10.84,3.85A8,8,0,0,0,79.51,184a5.58,5.58,0,0,1,0-1.15,6.67,6.67,0,0,1,.9-2.58,5.92,5.92,0,0,0-.69-.73,8,8,0,0,0-9.22-1A5.9,5.9,0,0,1,71.22,177.62Z" style="fill: rgb(224, 224, 224); transform-origin: 81.63px 179.673px;" id="elbu5bzl0roaj" class="animable"></path><path d="M140.91,166.07a5.17,5.17,0,0,0-7.3-.43,4.93,4.93,0,0,0-1,1.15,5.16,5.16,0,0,0-8.37,3,6.24,6.24,0,0,1,3.92-2.15,6.15,6.15,0,0,1,6.31,3.37,5.22,5.22,0,0,0,0-.88,5.42,5.42,0,0,0-.7-2,6.92,6.92,0,0,1,.53-.56,6.13,6.13,0,0,1,7.11-.74A4,4,0,0,0,140.91,166.07Z" style="fill: rgb(224, 224, 224); transform-origin: 132.825px 167.672px;" id="eltfqmot9qbt9" class="animable"></path><path d="M11.55,247.25c-5.77-5.78-4-18.24,4.34-19-2.05-5.11-1-12.11,5.53-13.4-2.08-6.26,3.72-10.61,9.53-8.36.25-6.6,9.61-7,11.72-2.33-.12-2.56,3.71-7.3,6.17-7.31-4.25-3.32-3.07-10,.57-10.86-4.95-3.75-2.3-12.32,3.61-12.24-3.15-5,1.54-10.09,6.23-11-1.7,1.89-3.25,4.42-2,7,1.11,2.33,4.12,2.74,6.12,3.72-4.74,1.6-6.92,6.36-3.39,10.53-4.83.61-5.45,7-3.52,9.64,1.19-1,3.65-1.26,5.45-.92,2.43.46,3.73,1.68,5.91,4.12-4.3-3.32-8.66,3-5.93,6.77-2.18-.93-5.75-1.18-7.73,2.27a5.78,5.78,0,0,0,1.31,6.91c-1.71.66-2.22,3.59-1.78,5.2a5.45,5.45,0,0,0,4.47,4.35c-6.29,1.69-.26,9.15,2,11.42-5-.43-7,3.08-8.49,6.94.42-1.09-2.88-3.11-3.59-3.43a9.69,9.69,0,0,0-5.26-.72c-3.63.49-6.49,3-6.31,6.87,0-.94-3.64-1.47-5.74-.19a8.21,8.21,0,0,0-4,6.3c-.42,3.44,2.81,6.32,5.63,7.87-2.81,2-5.66,3.51-6.56,7.27-1.1,4.58,2.71,6.23,5.18,9-2.74,1.81-5.47,3-6.42,6.62-1.16,4.44,2.47,6.45,5.29,8.88-7.1.51-10.08,9.7-6.5,15a8,8,0,0,0,1.25,1.43c-6.06.65-12.28-4.08-9.3-10.23-7.18-.61-7.83-9.55-3.21-13.68-7.1-2.79-6.67-12.91-2.31-15C3.14,262,3.19,249.86,11.55,247.25Z" style="fill: rgb(224, 224, 224); transform-origin: 36.4226px 234.205px;" id="elmukbzvvma" class="animable"></path><path d="M430,171.28a6.7,6.7,0,0,0-9.46-.56,6.42,6.42,0,0,0-1.23,1.49,6.69,6.69,0,0,0-10.85,3.84,8,8,0,0,1,13.25,1.58,5.49,5.49,0,0,0,0-1.14,6.66,6.66,0,0,0-.9-2.59,6.69,6.69,0,0,1,.69-.72,7.94,7.94,0,0,1,9.22-1A5.54,5.54,0,0,0,430,171.28Z" style="fill: rgb(224, 224, 224); transform-origin: 419.59px 173.329px;" id="el7lvnzp8fx1w" class="animable"></path><path d="M359.09,166.07a5.17,5.17,0,0,1,7.3-.43,4.93,4.93,0,0,1,.95,1.15,5.16,5.16,0,0,1,8.37,3,6.24,6.24,0,0,0-3.92-2.15,6.15,6.15,0,0,0-6.31,3.37,5.22,5.22,0,0,1,0-.88,5.42,5.42,0,0,1,.7-2,6.92,6.92,0,0,0-.53-.56,6.13,6.13,0,0,0-7.11-.74A4,4,0,0,1,359.09,166.07Z" style="fill: rgb(224, 224, 224); transform-origin: 367.125px 167.672px;" id="el1ckfikno1rl" class="animable"></path><path d="M488.45,247.25c5.77-5.78,4-18.24-4.34-19,2.05-5.11,1-12.11-5.53-13.4,2.08-6.26-3.72-10.61-9.53-8.36-.25-6.6-9.61-7-11.72-2.33.12-2.56-3.71-7.3-6.17-7.31,4.25-3.32,3.07-10-.57-10.86,5-3.75,2.3-12.32-3.61-12.24,3.15-5-1.54-10.09-6.23-11,1.7,1.89,3.25,4.42,2,7-1.11,2.33-4.12,2.74-6.12,3.72,4.74,1.6,6.92,6.36,3.39,10.53,4.83.61,5.45,7,3.52,9.64-1.19-1-3.65-1.26-5.45-.92-2.43.46-3.73,1.68-5.91,4.12,4.3-3.32,8.66,3,5.93,6.77,2.18-.93,5.75-1.18,7.73,2.27a5.78,5.78,0,0,1-1.31,6.91c1.71.66,2.22,3.59,1.78,5.2a5.45,5.45,0,0,1-4.47,4.35c6.29,1.69.26,9.15-1.95,11.42,5-.43,7,3.08,8.49,6.94-.42-1.09,2.88-3.11,3.59-3.43a9.69,9.69,0,0,1,5.26-.72c3.63.49,6.49,3,6.31,6.87,0-.94,3.64-1.47,5.74-.19a8.21,8.21,0,0,1,4,6.3c.42,3.44-2.81,6.32-5.63,7.87,2.81,2,5.66,3.51,6.56,7.27,1.1,4.58-2.71,6.23-5.18,9,2.74,1.81,5.47,3,6.42,6.62,1.16,4.44-2.47,6.45-5.29,8.88,7.1.51,10.08,9.7,6.5,15a8,8,0,0,1-1.25,1.43c6.06.65,12.28-4.08,9.3-10.23,7.18-.61,7.83-9.55,3.21-13.68,7.1-2.79,6.67-12.91,2.31-15C496.86,262,496.81,249.86,488.45,247.25Z" style="fill: rgb(224, 224, 224); transform-origin: 463.581px 234.205px;" id="elmlxxac2ewr" class="animable"></path></g></g></g><g id="freepik--Grass--inject-347" class="animable" style="transform-origin: 249.994px 339.542px;"><path d="M79.85,437.79c-94-54.26-94-142.22,0-196.48s246.33-54.25,340.3,0,94,142.22,0,196.48S173.82,492,79.85,437.79Z" style="fill: rgb(213, 153, 116); transform-origin: 249.994px 339.542px;" id="elq69pyhmitl" class="animable"></path><g id="eljucjpa5ixda"><path d="M79.85,437.79c-94-54.26-94-142.22,0-196.48s246.33-54.25,340.3,0,94,142.22,0,196.48S173.82,492,79.85,437.79Z" style="fill: rgb(255, 255, 255); opacity: 0.65; transform-origin: 249.994px 339.542px;" class="animable"></path></g></g><g id="freepik--Flowers--inject-347" class="animable" style="transform-origin: 253.17px 379.138px;"><g id="freepik--flowers--inject-347" class="animable" style="transform-origin: 322.222px 340.096px;"><path d="M359.53,340.86s-.27-3.84-3.29-4.25c0,0-2.47-.41-3.85,3.43,0,0-3-1.51-7.14.82a4.45,4.45,0,0,0,3.3,4.94s-2.33,1.79-1.24,6c0,0,6.18,2.06,7.69-1.78,0,0,.55,3.43,6.59,3.43a5.74,5.74,0,0,0,0-6.86s4.26-.14,4.94-3.3C366.53,343.33,363.65,338.53,359.53,340.86Z" style="fill: rgb(250, 250, 250); transform-origin: 355.868px 345.024px;" id="els79ln6itt8" class="animable"></path><path d="M355.82,341.47a4.23,4.23,0,0,0-4.57,2.83s0,2.24,3.86,2.57,4.43-1.93,4.43-1.93A3.77,3.77,0,0,0,355.82,341.47Z" style="fill: rgb(240, 153, 122); transform-origin: 355.395px 344.167px;" id="ele53isdy2f5l" class="animable"></path><path d="M419.14,351.7s-1.35-2.74-3.57-3.05a6.12,6.12,0,0,0-2.2,3.93,5.61,5.61,0,0,0-4.85,1.19,5.17,5.17,0,0,0,3.08,3.56,6.92,6.92,0,0,0,.16,5.06s4.27.32,5.78-3.24c0,0,1.58,2.36,5.93,1.54a4.45,4.45,0,0,0-1.58-5.18s2.69-1.55,2.37-4.14A6.7,6.7,0,0,0,419.14,351.7Z" style="fill: rgb(250, 250, 250); transform-origin: 416.403px 355.524px;" id="elzx8uu84t7v" class="animable"></path><path d="M416.71,353.31a3.13,3.13,0,0,0-3,2.58s.25,1.64,3.11,1.45,3-1.9,3-1.9A2.81,2.81,0,0,0,416.71,353.31Z" style="fill: rgb(240, 153, 122); transform-origin: 416.765px 355.32px;" id="elclo0hmy6b6i" class="animable"></path><path d="M380.68,303.69s-.84-2.44-2.44-1.6-1.05,2.37.35,2.72c0,0-3,1-2.17,2.58s3.42-.07,4-.9c0,0,.56,2.45,2.66,1.57s0-3,0-3,3.21-1.25,1.46-2.71S380.68,303.69,380.68,303.69Z" style="fill: rgb(250, 250, 250); transform-origin: 380.668px 305.082px;" id="elj3vh4059gy" class="animable"></path><path d="M331.53,309.33s-.83-2.44-2.44-1.6-1,2.37.35,2.72c0,0-3,1-2.17,2.58s3.43-.07,4-.9c0,0,.56,2.45,2.66,1.57s0-3,0-3,3.21-1.25,1.47-2.71S331.53,309.33,331.53,309.33Z" style="fill: rgb(250, 250, 250); transform-origin: 331.521px 310.722px;" id="el23mux58px18" class="animable"></path><path d="M213.4,339.61s-.83-2.44-2.44-1.6-1.05,2.37.35,2.72c0,0-3,1-2.17,2.59s3.43-.07,4-.91c0,0,.56,2.46,2.66,1.58s0-3,0-3,3.21-1.26,1.46-2.72S213.4,339.61,213.4,339.61Z" style="fill: rgb(250, 250, 250); transform-origin: 213.388px 341.007px;" id="elne2lpugaht" class="animable"></path><path d="M431.19,321.08s.24-2.58-1.57-2.48-1.93,1.73-.8,2.63c0,0-3.14-.35-3,1.46s3.14,1.35,4,.81c0,0-.51,2.47,1.76,2.54s1.23-2.72,1.23-2.72,3.45.19,2.46-1.87S431.19,321.08,431.19,321.08Z" style="fill: rgb(250, 250, 250); transform-origin: 430.632px 322.319px;" id="ellwuq4o66o5" class="animable"></path><path d="M336.58,373.5s1.43-3.13,2.76-2.06-.43,2.78-.43,2.78,2.39.51,1.57,1.79-3,.28-3,.28,0,2.45-1.61,1.91-.72-2.73-.72-2.73-2.23.24-2.34-1.2S335.25,372.42,336.58,373.5Z" style="fill: rgb(250, 250, 250); transform-origin: 336.729px 374.747px;" id="elp0ac0rgp039" class="animable"></path></g><g id="freepik--flowers--inject-347" class="animable" style="transform-origin: 415.13px 397.058px;"><path d="M386.37,419.06s-1.24-3.54-4.18-3.15c0,0-2.43.25-2.73,4.21,0,0-3.22-.64-6.49,2.61a4.32,4.32,0,0,0,4.36,3.79s-1.73,2.27.39,6c0,0,6.33.35,6.76-3.65,0,0,1.4,3.08,7.07,1.53a5.59,5.59,0,0,0-1.77-6.44s4-1.22,3.8-4.36C393.58,419.59,389.64,415.82,386.37,419.06Z" style="fill: rgb(250, 250, 250); transform-origin: 383.279px 424.204px;" id="elncsk666es4m" class="animable"></path><path d="M383,420.59a4.11,4.11,0,0,0-3.56,3.82s.58,2.11,4.28,1.43,3.67-2.95,3.67-2.95A3.68,3.68,0,0,0,383,420.59Z" style="fill: rgb(240, 153, 122); transform-origin: 383.415px 423.222px;" id="el5l1nig27lyr" class="animable"></path><path d="M429.35,390.43s-1.32-2.66-3.47-3a6,6,0,0,0-2.14,3.83,5.48,5.48,0,0,0-4.73,1.16,5,5,0,0,0,3,3.46,6.7,6.7,0,0,0,.16,4.93s4.16.31,5.62-3.15c0,0,1.54,2.3,5.77,1.49a4.32,4.32,0,0,0-1.54-5s2.62-1.51,2.31-4A6.51,6.51,0,0,0,429.35,390.43Z" style="fill: rgb(250, 250, 250); transform-origin: 426.683px 394.124px;" id="elkfpxfpkzdp9" class="animable"></path><path d="M427,392a3,3,0,0,0-2.94,2.51s.24,1.6,3,1.42,3-1.86,3-1.86A2.74,2.74,0,0,0,427,392Z" style="fill: rgb(240, 153, 122); transform-origin: 427.06px 393.958px;" id="el5u6wrnehm14" class="animable"></path><path d="M385.87,391.42s-.82-2.37-2.38-1.56-1,2.31.34,2.65c0,0-2.92.95-2.11,2.52s3.33-.07,3.88-.89c0,0,.54,2.4,2.58,1.54s0-2.9,0-2.9,3.12-1.22,1.43-2.65S385.87,391.42,385.87,391.42Z" style="fill: rgb(250, 250, 250); transform-origin: 385.845px 392.779px;" id="el8wnnmau3q53" class="animable"></path><path d="M453.22,364s.24-2.5-1.52-2.41-1.88,1.69-.79,2.56c0,0-3.05-.35-3,1.42s3.07,1.31,3.9.79c0,0-.5,2.41,1.72,2.47s1.19-2.64,1.19-2.64,3.35.18,2.4-1.82S453.22,364,453.22,364Z" style="fill: rgb(250, 250, 250); transform-origin: 452.6px 365.209px;" id="el51qc30iv0ox" class="animable"></path></g><g id="freepik--flowers--inject-347" class="animable" style="transform-origin: 138.712px 390.052px;"><path d="M134.72,425.73s-.29-4.13-3.54-4.58c0,0-2.65-.44-4.13,3.69,0,0-3.25-1.62-7.67.89a4.77,4.77,0,0,0,3.54,5.31s-2.51,1.92-1.33,6.49c0,0,6.64,2.21,8.26-1.92,0,0,.59,3.69,7.09,3.69a6.19,6.19,0,0,0,0-7.38s4.57-.14,5.31-3.54C142.25,428.38,139.15,423.22,134.72,425.73Z" style="fill: rgb(250, 250, 250); transform-origin: 130.79px 430.218px;" id="el5lsxtu91qi3" class="animable"></path><path d="M130.73,426.38a4.52,4.52,0,0,0-4.9,3s0,2.41,4.14,2.76,4.76-2.07,4.76-2.07A4.06,4.06,0,0,0,130.73,426.38Z" style="fill: rgb(240, 153, 122); transform-origin: 130.28px 429.255px;" id="elr4mbwnywf9r" class="animable"></path><path d="M180.16,410s-1.46-2.94-3.84-3.28a6.57,6.57,0,0,0-2.36,4.22,6,6,0,0,0-5.22,1.29,5.56,5.56,0,0,0,3.32,3.82,7.39,7.39,0,0,0,.17,5.45s4.59.34,6.21-3.49c0,0,1.7,2.54,6.37,1.65a4.78,4.78,0,0,0-1.7-5.56s2.89-1.67,2.55-4.45A7.16,7.16,0,0,0,180.16,410Z" style="fill: rgb(250, 250, 250); transform-origin: 177.214px 414.114px;" id="el6de4v8u66z6" class="animable"></path><path d="M177.55,411.71a3.36,3.36,0,0,0-3.26,2.77s.27,1.77,3.34,1.57,3.26-2.05,3.26-2.05A3,3,0,0,0,177.55,411.71Z" style="fill: rgb(240, 153, 122); transform-origin: 177.59px 413.873px;" id="elggmdkk3hfu" class="animable"></path><path d="M153.31,354.32s-1.45-2.94-3.83-3.28a6.57,6.57,0,0,0-2.36,4.22,6,6,0,0,0-5.22,1.28,5.58,5.58,0,0,0,3.32,3.83,7.37,7.37,0,0,0,.17,5.44s4.59.34,6.2-3.48c0,0,1.7,2.54,6.38,1.65a4.79,4.79,0,0,0-1.7-5.57s2.89-1.66,2.55-4.44A7.18,7.18,0,0,0,153.31,354.32Z" style="fill: rgb(250, 250, 250); transform-origin: 150.374px 358.429px;" id="el126koqymvnc" class="animable"></path><path d="M150.7,356.05a3.34,3.34,0,0,0-3.25,2.77s.27,1.76,3.34,1.56,3.26-2,3.26-2A3,3,0,0,0,150.7,356.05Z" style="fill: rgb(240, 153, 122); transform-origin: 150.75px 358.208px;" id="el9v66elmpi2r" class="animable"></path><path d="M147.92,392.49s-.9-2.63-2.63-1.73-1.12,2.55.38,2.93c0,0-3.23,1.05-2.33,2.78s3.68-.08,4.28-1c0,0,.6,2.64,2.85,1.7s0-3.21,0-3.21,3.46-1.34,1.58-2.92S147.92,392.49,147.92,392.49Z" style="fill: rgb(250, 250, 250); transform-origin: 147.896px 393.972px;" id="elb36k3w022u" class="animable"></path><path d="M108.12,373.25s-.91-2.62-2.63-1.72-1.13,2.55.37,2.93c0,0-3.22,1.05-2.32,2.77s3.67-.07,4.28-1c0,0,.6,2.64,2.85,1.69s0-3.2,0-3.2,3.45-1.35,1.57-2.92S108.12,373.25,108.12,373.25Z" style="fill: rgb(250, 250, 250); transform-origin: 108.091px 374.734px;" id="el5x63tn2m64p" class="animable"></path><path d="M189.73,371.37s-.9-2.63-2.63-1.73-1.12,2.55.38,2.93c0,0-3.23,1.05-2.33,2.78s3.68-.08,4.28-1c0,0,.6,2.64,2.85,1.7s0-3.21,0-3.21,3.46-1.34,1.58-2.92S189.73,371.37,189.73,371.37Z" style="fill: rgb(250, 250, 250); transform-origin: 189.706px 372.852px;" id="elw0zrgvfat1" class="animable"></path><path d="M152.63,325.66s-.9-2.63-2.62-1.73-1.13,2.55.37,2.93c0,0-3.23,1.05-2.33,2.78s3.68-.08,4.28-1c0,0,.6,2.64,2.86,1.7s0-3.21,0-3.21,3.45-1.34,1.57-2.92S152.63,325.66,152.63,325.66Z" style="fill: rgb(250, 250, 250); transform-origin: 152.606px 327.142px;" id="el7wrjmz7z813" class="animable"></path><path d="M175,448.64s.26-2.77-1.68-2.66-2.08,1.86-.87,2.82c0,0-3.37-.38-3.27,1.57s3.38,1.45,4.3.88c0,0-.54,2.65,1.9,2.72s1.32-2.92,1.32-2.92,3.7.2,2.65-2S175,448.64,175,448.64Z" style="fill: rgb(250, 250, 250); transform-origin: 174.358px 449.974px;" id="elx91k71l1e2" class="animable"></path><path d="M224.73,451.39s3.53-1.12,3.64.73-2.54,1.66-2.54,1.66,1.33,2.28-.29,2.56-2.37-2.17-2.37-2.17-2,1.78-2.7.09,1.67-2.55,1.67-2.55-1.8-1.61-.74-2.75S224.62,449.55,224.73,451.39Z" style="fill: rgb(250, 250, 250); transform-origin: 224.357px 452.479px;" id="el4umeucnppjg" class="animable"></path><path d="M53.44,383.8s3.53-1.12,3.64.73-2.54,1.66-2.54,1.66,1.33,2.28-.29,2.56-2.37-2.17-2.37-2.17-2,1.77-2.7.09,1.67-2.55,1.67-2.55-1.8-1.62-.74-2.75S53.33,382,53.44,383.8Z" style="fill: rgb(250, 250, 250); transform-origin: 53.067px 384.893px;" id="el29n5pp7txxj" class="animable"></path><path d="M91.28,410s-2.23-2.94-.54-3.66,2.41,1.83,2.41,1.83,1.7-2,2.5-.58-1.25,2.95-1.25,2.95,2.32,1.25,1,2.5-2.94-.72-2.94-.72-.92,2.24-2.33,1.61S89.58,410.71,91.28,410Z" style="fill: rgb(250, 250, 250); transform-origin: 92.6288px 410.127px;" id="el84xveq3pxq3" class="animable"></path></g></g></g><g id="freepik--Shadow--inject-347" class="animable" style="transform-origin: 271.726px 426.054px;"><g id="freepik--shadow--inject-347"><path d="M237.77,428.22c31.28,7.52,47.58,35.38,84,27.85,12.81-2,29.86-12.75,17.74-24.25-22.45-16.05-51.9-9-76.83-20.64-9-3.82-18.07-10.87-27.3-13.91-9.88-2.8-20.6-4.11-30.12.68a8.41,8.41,0,0,0-5.32,9.44C201.93,420.53,226.61,424.83,237.77,428.22Z" style="fill: rgb(213, 153, 116); opacity: 0.3; transform-origin: 271.726px 426.054px;" class="animable"></path></g></g><g id="freepik--Clouds--inject-347" class="animable" style="transform-origin: 315.71px 81.4453px;"><path id="freepik--Cloud--inject-347" d="M443.2,122c-.1-3.84,4-6.63,8.76-7.23,5.59-.69,9.64,1.68,9.91,6.1,3.62-1.62,7.52-.77,7.35,3.27.92-1.13,4.49-1.21,5.78-.94a5,5,0,0,1,3.28,2.62,3.68,3.68,0,0,1,.39,2.06c2.12-.77,7-1.35,8.25.58,2.27,3.42-6.38,3.8-8.15,2.79-2.62,4.41-11.45,4.06-13.3.79a9.29,9.29,0,0,1-6.43,2.87c-4.59.41-8.6-.61-10.2-2.88-3.8,3.42-10.55,3.69-14.17,0-.88.87-3.34,1.21-5.33.79-1.31-.27-1.62-.81-1.62-.81a11.77,11.77,0,0,1-2.37.79c-2.53.61-7.29.19-5.37-2.17.65-.8,3.12-1.37,4.18-1.16,1-2.22,5.44-4.43,8.06-2.66,0-2.65,2.38-4.8,5.77-5.43C439.13,121.22,441.87,121,443.2,122Z" style="fill: rgb(245, 245, 245); transform-origin: 453.416px 124.825px;" class="animable"></path><path id="freepik--cloud--inject-347" d="M273.32,51.65c-.15-5.45,5.69-9.42,12.44-10.26,7.94-1,13.71,2.38,14.09,8.65,5.14-2.29,10.68-1.09,10.44,4.65,1.31-1.6,6.38-1.71,8.22-1.33a7.14,7.14,0,0,1,4.65,3.73,5.34,5.34,0,0,1,.57,2.92c3-1.09,9.89-1.91,11.71.83,3.22,4.86-9.06,5.39-11.58,4-3.72,6.26-16.27,5.76-18.9,1.11-2.42,2.6-5.27,3.73-9.13,4.08-6.52.58-12.22-.86-14.5-4.09-5.4,4.87-15,5.24-20.14,0-1.24,1.24-4.74,1.72-7.57,1.14-1.86-.39-2.31-1.16-2.31-1.16A15.59,15.59,0,0,1,248,67c-3.6.87-10.36.27-7.63-3.08.92-1.14,4.43-2,5.94-1.65,1.48-3.16,7.73-6.29,11.45-3.78,0-3.77,3.38-6.82,8.2-7.71C267.53,50.51,271.42,50.17,273.32,51.65Z" style="fill: rgb(245, 245, 245); transform-origin: 287.855px 55.686px;" class="animable"></path><path id="freepik--cloud--inject-347" d="M171.9,36.6c-.15-4.51,4.66-7.82,10.23-8.55,6.57-.87,11.35,1.9,11.7,7.08,4.25-1.93,8.83-1,8.66,3.79,1.08-1.33,5.27-1.45,6.79-1.15a5.91,5.91,0,0,1,3.87,3.07,4.31,4.31,0,0,1,.48,2.41c2.49-.92,8.18-1.63,9.69.62,2.7,4-7.46,4.51-9.55,3.35-.32,3.2-11.22,4.13-14,1.28-1.71,2.85-5.53,3.74-8.73,4-5.39.52-9.86-1.23-12.47-4.2-4.44,4-12.37,4.42-16.66.12-1,1-3.91,1.45-6.25,1-1.54-.31-1.92-.94-1.92-.94a13.85,13.85,0,0,1-2.77.94c-3,.74-8.57.28-6.33-2.5.76-1,3.65-1.64,4.9-1.4,1.21-2.62,6.37-5.25,9.46-3.19,0-3.11,2.76-5.65,6.74-6.42C167.1,35.68,170.32,35.38,171.9,36.6Z" style="fill: rgb(245, 245, 245); transform-origin: 183.948px 40.2414px;" class="animable"></path></g><g id="freepik--sun-2--inject-347" class="animable" style="transform-origin: 397.141px 70.9396px;"><g id="freepik--Sun--inject-347" class="animable" style="transform-origin: 397.141px 70.9396px;"><g id="freepik--sun--inject-347"><circle cx="397.22" cy="70.9" r="27.61" style="fill: rgb(255, 189, 167); transform-origin: 397.22px 70.9px; transform: rotate(-80.78deg);" class="animable"></circle></g><path d="M397.22,38.33a.63.63,0,0,1-.63-.62V26.27a.63.63,0,0,1,1.25,0V37.71A.62.62,0,0,1,397.22,38.33Z" style="fill: rgb(255, 189, 167); transform-origin: 397.215px 32.0246px;" id="elbe7jic5wmei" class="animable"></path><path d="M380.62,42.78a.63.63,0,0,1-.54-.31l-5.72-9.91a.62.62,0,1,1,1.08-.62l5.72,9.9a.63.63,0,0,1-.22.86A.72.72,0,0,1,380.62,42.78Z" style="fill: rgb(255, 189, 167); transform-origin: 377.762px 37.2031px;" id="elda64lim8gs" class="animable"></path><path d="M368.47,54.93a.71.71,0,0,1-.31-.08l-9.9-5.72a.63.63,0,0,1,.62-1.09l9.91,5.72a.63.63,0,0,1-.32,1.17Z" style="fill: rgb(255, 189, 167); transform-origin: 363.545px 51.4577px;" id="elfeskmux2ero" class="animable"></path><path d="M364,71.53H352.59a.63.63,0,1,1,0-1.25H364a.63.63,0,0,1,0,1.25Z" style="fill: rgb(255, 189, 167); transform-origin: 358.216px 70.905px;" id="elb3ivhru48l8" class="animable"></path><path d="M358.57,93.84a.61.61,0,0,1-.54-.31.63.63,0,0,1,.23-.86l9.9-5.71a.63.63,0,1,1,.63,1.08l-9.91,5.72A.71.71,0,0,1,358.57,93.84Z" style="fill: rgb(255, 189, 167); transform-origin: 363.559px 90.3354px;" id="el73sw4lsduzh" class="animable"></path><path d="M374.9,110.18a.61.61,0,0,1-.31-.09.62.62,0,0,1-.23-.85l5.72-9.91a.63.63,0,1,1,1.08.63l-5.72,9.9A.6.6,0,0,1,374.9,110.18Z" style="fill: rgb(255, 189, 167); transform-origin: 377.783px 104.564px;" id="el13knjjcdzsq9" class="animable"></path><path d="M397.22,116.16a.63.63,0,0,1-.63-.63V104.09a.63.63,0,0,1,1.25,0v11.44A.63.63,0,0,1,397.22,116.16Z" style="fill: rgb(255, 189, 167); transform-origin: 397.215px 109.85px;" id="elm5ddo7tqfug" class="animable"></path><path d="M419.54,110.18a.63.63,0,0,1-.55-.32l-5.72-9.9a.63.63,0,0,1,1.09-.63l5.72,9.91a.62.62,0,0,1-.23.85A.61.61,0,0,1,419.54,110.18Z" style="fill: rgb(255, 189, 167); transform-origin: 416.681px 104.609px;" id="elxs2iui4f47b" class="animable"></path><path d="M435.87,93.84a.68.68,0,0,1-.31-.08L425.65,88a.63.63,0,0,1,.63-1.09l9.9,5.72a.64.64,0,0,1,.23.86A.61.61,0,0,1,435.87,93.84Z" style="fill: rgb(255, 189, 167); transform-origin: 430.924px 90.3389px;" id="elvneutkz2x2" class="animable"></path><path d="M441.85,71.53H430.41a.63.63,0,0,1,0-1.25h11.44a.63.63,0,0,1,0,1.25Z" style="fill: rgb(255, 189, 167); transform-origin: 436.13px 70.905px;" id="el734ijuwng3b" class="animable"></path><path d="M426,54.93a.63.63,0,0,1-.31-1.17L435.56,48a.62.62,0,0,1,.85.23.64.64,0,0,1-.23.86l-9.9,5.72A.72.72,0,0,1,426,54.93Z" style="fill: rgb(255, 189, 167); transform-origin: 430.938px 51.4232px;" id="elo42ldnn6vte" class="animable"></path><path d="M413.81,42.78a.71.71,0,0,1-.31-.08.64.64,0,0,1-.23-.86l5.72-9.9a.63.63,0,0,1,1.09.62l-5.72,9.91A.64.64,0,0,1,413.81,42.78Z" style="fill: rgb(255, 189, 167); transform-origin: 416.662px 37.2267px;" id="el2xzq1jkdiug" class="animable"></path><path d="M391.71,64.1a5.47,5.47,0,0,0-3.11-2.88,6.72,6.72,0,0,0-3.5-.16,5.62,5.62,0,0,0-3,1.62,14.08,14.08,0,0,0-1.83,2.86c-.06.1,0,.49.13.34a8,8,0,0,1,2.49-1.7,10,10,0,0,1,2.9-1,5.75,5.75,0,0,1,2.26.14,11.39,11.39,0,0,1,1.77.57,9,9,0,0,1,1.43,1C391.73,65.2,391.86,64.44,391.71,64.1Z" style="fill: rgb(240, 153, 122); transform-origin: 386.008px 63.4074px;" id="elhg6ylmnr1sn" class="animable"></path><path d="M402.73,64.1a5.44,5.44,0,0,1,3.11-2.88,6.72,6.72,0,0,1,3.5-.16,5.62,5.62,0,0,1,3,1.62,14.08,14.08,0,0,1,1.83,2.86c.05.1,0,.49-.13.34a8,8,0,0,0-2.49-1.7,10,10,0,0,0-2.9-1,5.74,5.74,0,0,0-2.26.14,11.06,11.06,0,0,0-1.77.57,9,9,0,0,0-1.43,1C402.71,65.2,402.58,64.44,402.73,64.1Z" style="fill: rgb(240, 153, 122); transform-origin: 408.43px 63.4074px;" id="el4husvqz54ml" class="animable"></path><path d="M397.22,82a19.41,19.41,0,0,1-16.93-9.94l.71-.4a18.57,18.57,0,0,0,32.43,0l.72.4A19.41,19.41,0,0,1,397.22,82Z" style="fill: rgb(240, 153, 122); transform-origin: 397.22px 76.83px;" id="elws9kxqcb4x" class="animable"></path><path d="M415.17,73a3.06,3.06,0,0,0-.44-.58,3.21,3.21,0,0,0-.93-.79,6.42,6.42,0,0,0-.94-.39,2.26,2.26,0,0,0-.49-.14c-.18,0-.38,0-.56,0s-.21.48,0,.54a6.41,6.41,0,0,1,.93.41,2.5,2.5,0,0,1,.39.23,1,1,0,0,1,.19.16l.12.12h0a.77.77,0,0,0,.18.18l.05,0,0,0,.09.09c0,.06.11.12.16.19l0,0,0,0c.09.13.18.26.26.39l.12.2a1.62,1.62,0,0,0,.49.52.38.38,0,0,0,.46,0C415.66,73.77,415.41,73.37,415.17,73Z" style="fill: rgb(240, 153, 122); transform-origin: 413.566px 72.6538px;" id="elovg2r5w4ipi" class="animable"></path><path d="M379,73a4.21,4.21,0,0,1,.44-.58,3.34,3.34,0,0,1,.93-.79,6.91,6.91,0,0,1,.94-.39,2.19,2.19,0,0,1,.5-.14c.17,0,.37,0,.55,0s.21.48,0,.54a6.41,6.41,0,0,0-.93.41,3.07,3.07,0,0,0-.39.23,1,1,0,0,0-.19.16l-.12.12h0a1,1,0,0,1-.17.18l-.06,0,0,0-.09.09-.16.19,0,0,0,0a4.56,4.56,0,0,0-.27.39l-.12.2a1.52,1.52,0,0,1-.49.52.38.38,0,0,1-.46,0C378.56,73.77,378.8,73.37,379,73Z" style="fill: rgb(240, 153, 122); transform-origin: 380.619px 72.6538px;" id="el08p4kzte8b0p" class="animable"></path></g></g><g id="freepik--Lines--inject-347" class="animable" style="transform-origin: 149.585px 200.71px;"><g id="freepik--Thinking--inject-347" class="animable" style="transform-origin: 149.585px 200.71px;"><g id="ellg9tooz15se"><path d="M298.78,116.09,294,174c-7.59,16.34-10,29.9-26.31,37.13s-24.43.29-40.33,17.34-13.58,46.09-33,62.8-31.78,4.3-58.38,21.05-22.25,41.71-57.25,50.87c-23,6-33.65-4.25-52.87-3.91C10.78,359.57,0,369.24,0,369.24v-324s39.24-21.69,76.77-8c26,9.48,28.34,25.91,53.39,35.79,18.23,6.52,53.44-6.11,74.41,2.62s18.68,21.79,37.63,27.63S274.47,96.89,298.78,116.09Z" style="fill: rgb(255, 255, 255); opacity: 0.6; transform-origin: 149.39px 200.974px;" class="animable"></path></g><path d="M293.57,173.7c-3.74,9.84-7.72,20.07-14.89,28a34.18,34.18,0,0,1-13.45,9.06c-5.58,2.09-11.5,2.95-17.26,4.36a41.22,41.22,0,0,0-15.07,6.52,42.11,42.11,0,0,0-10.06,10.94c-5.72,8.74-8.91,18.69-12.37,28.45S203,281,195.76,288.63a35.43,35.43,0,0,1-13.46,8.9c-5.59,2.08-11.55,3-17.4,4a93.06,93.06,0,0,0-17.06,4,61.69,61.69,0,0,0-15.34,8.24A67.79,67.79,0,0,0,120,325.91c-3.72,4.6-7,9.49-10.67,14.16a66.83,66.83,0,0,1-12,12.47,54.38,54.38,0,0,1-13.78,7.65,57.33,57.33,0,0,1-31,2.74c-2.66-.52-5.31-1.18-7.92-1.9-.44-.12-.37.79-.07.93,9.69,4.63,21.36,4.94,31.72,2.72a56.17,56.17,0,0,0,27.77-14.84c8.6-8.55,14.34-19.47,22.85-28.09A61.29,61.29,0,0,1,157.7,305c11.34-2.45,23.68-2.8,33.61-9.49,8.73-5.89,14.06-15.35,18-24.87,7.68-18.57,11.89-43.45,33.07-51.56,10.71-4.1,22.88-3.88,32.3-11.11,8.49-6.52,13.16-16.63,16.79-26.42.92-2.49,1.73-5,2.55-7.56C294.11,173.72,293.74,173.25,293.57,173.7Z" style="fill: rgb(213, 153, 116); transform-origin: 169.176px 269.765px;" id="elpkj0737bp3j" class="animable"></path><g id="eluzloan0e8e"><path d="M293.57,173.7c-3.74,9.84-7.72,20.07-14.89,28a34.18,34.18,0,0,1-13.45,9.06c-5.58,2.09-11.5,2.95-17.26,4.36a41.22,41.22,0,0,0-15.07,6.52,42.11,42.11,0,0,0-10.06,10.94c-5.72,8.74-8.91,18.69-12.37,28.45S203,281,195.76,288.63a35.43,35.43,0,0,1-13.46,8.9c-5.59,2.08-11.55,3-17.4,4a93.06,93.06,0,0,0-17.06,4,61.69,61.69,0,0,0-15.34,8.24A67.79,67.79,0,0,0,120,325.91c-3.72,4.6-7,9.49-10.67,14.16a66.83,66.83,0,0,1-12,12.47,54.38,54.38,0,0,1-13.78,7.65,57.33,57.33,0,0,1-31,2.74c-2.66-.52-5.31-1.18-7.92-1.9-.44-.12-.37.79-.07.93,9.69,4.63,21.36,4.94,31.72,2.72a56.17,56.17,0,0,0,27.77-14.84c8.6-8.55,14.34-19.47,22.85-28.09A61.29,61.29,0,0,1,157.7,305c11.34-2.45,23.68-2.8,33.61-9.49,8.73-5.89,14.06-15.35,18-24.87,7.68-18.57,11.89-43.45,33.07-51.56,10.71-4.1,22.88-3.88,32.3-11.11,8.49-6.52,13.16-16.63,16.79-26.42.92-2.49,1.73-5,2.55-7.56C294.11,173.72,293.74,173.25,293.57,173.7Z" style="fill: rgb(255, 255, 255); opacity: 0.4; transform-origin: 169.176px 269.765px;" class="animable"></path></g><path d="M299,115.18c-7.16-6.68-16.83-10.45-26.47-11.59-10.23-1.2-20.85,1.62-30.9-1.18-9.08-2.53-14.7-10.31-20.87-16.83a44.87,44.87,0,0,0-10.28-8.45,42.86,42.86,0,0,0-13-4.63c-20.1-3.9-40.22,4-60.34,1-9.81-1.45-18.09-6.17-25.65-12.39-6.92-5.69-13.2-12.15-20.5-17.39A60.53,60.53,0,0,0,65.18,33.16c-9.71-1.58-19.67-1.07-29.38.25-2.41.33-4.8.73-7.19,1.21-.37.07-.26.88.11.84,19.7-2.53,41-3.6,58.51,7.56,14.87,9.5,25.57,25.39,43,30.8,19.63,6.1,40-1.53,60-.23,9.35.61,18.46,3.24,25.55,9.6,6.37,5.71,11.12,13.13,18.36,17.87,8.45,5.53,18.53,4.73,28.16,4.4a61.25,61.25,0,0,1,15,1,55.54,55.54,0,0,1,15.48,5.88c2.07,1.15,4.09,2.45,6,3.78C299.25,116.4,299.26,115.41,299,115.18Z" style="fill: rgb(213, 153, 116); transform-origin: 163.776px 74.1743px;" id="el2v9rgau1kd" class="animable"></path><g id="elasha5m0ay0j"><path d="M299,115.18c-7.16-6.68-16.83-10.45-26.47-11.59-10.23-1.2-20.85,1.62-30.9-1.18-9.08-2.53-14.7-10.31-20.87-16.83a44.87,44.87,0,0,0-10.28-8.45,42.86,42.86,0,0,0-13-4.63c-20.1-3.9-40.22,4-60.34,1-9.81-1.45-18.09-6.17-25.65-12.39-6.92-5.69-13.2-12.15-20.5-17.39A60.53,60.53,0,0,0,65.18,33.16c-9.71-1.58-19.67-1.07-29.38.25-2.41.33-4.8.73-7.19,1.21-.37.07-.26.88.11.84,19.7-2.53,41-3.6,58.51,7.56,14.87,9.5,25.57,25.39,43,30.8,19.63,6.1,40-1.53,60-.23,9.35.61,18.46,3.24,25.55,9.6,6.37,5.71,11.12,13.13,18.36,17.87,8.45,5.53,18.53,4.73,28.16,4.4a61.25,61.25,0,0,1,15,1,55.54,55.54,0,0,1,15.48,5.88c2.07,1.15,4.09,2.45,6,3.78C299.25,116.4,299.26,115.41,299,115.18Z" style="fill: rgb(255, 255, 255); opacity: 0.4; transform-origin: 163.776px 74.1743px;" class="animable"></path></g><path d="M252,153.25c-4.9,3.33-9.94,6.15-15.75,7.52a56.52,56.52,0,0,1-17,1.16c-12.94-.9-25.24-5.44-37.81-8.26a89.09,89.09,0,0,0-19.58-2.44,120.48,120.48,0,0,0-21.5,2.41c-13.58,2.53-27.29,6-41.22,4.69a51.34,51.34,0,0,1-10.57-2.06c-3.41-1.06-6.71-2.46-10-3.76-6-2.35-12.51-4.63-19-3.1-.27.06-.15.64.12.59,6.32-1,12.29.93,18.08,3.29C84,155.8,90,158.44,96.62,159.46c13.71,2.13,27.49-.93,40.92-3.47a146.55,146.55,0,0,1,21.56-2.89,82.81,82.81,0,0,1,20.58,2c12.67,2.72,25,7.3,38,8.51a59.79,59.79,0,0,0,18.87-1c5.93-1.35,12.1-3.79,16.14-8.51C252.93,153.79,252.44,153,252,153.25Z" style="fill: rgb(213, 153, 116); transform-origin: 156.086px 156.429px;" id="el53s8512fw6v" class="animable"></path><g id="el1ri73tpza9j"><path d="M252,153.25c-4.9,3.33-9.94,6.15-15.75,7.52a56.52,56.52,0,0,1-17,1.16c-12.94-.9-25.24-5.44-37.81-8.26a89.09,89.09,0,0,0-19.58-2.44,120.48,120.48,0,0,0-21.5,2.41c-13.58,2.53-27.29,6-41.22,4.69a51.34,51.34,0,0,1-10.57-2.06c-3.41-1.06-6.71-2.46-10-3.76-6-2.35-12.51-4.63-19-3.1-.27.06-.15.64.12.59,6.32-1,12.29.93,18.08,3.29C84,155.8,90,158.44,96.62,159.46c13.71,2.13,27.49-.93,40.92-3.47a146.55,146.55,0,0,1,21.56-2.89,82.81,82.81,0,0,1,20.58,2c12.67,2.72,25,7.3,38,8.51a59.79,59.79,0,0,0,18.87-1c5.93-1.35,12.1-3.79,16.14-8.51C252.93,153.79,252.44,153,252,153.25Z" style="fill: rgb(255, 255, 255); opacity: 0.4; transform-origin: 156.086px 156.429px;" class="animable"></path></g><path d="M202.8,213.25c-4,3.94-9.4,6.61-14.64,8.59a131.47,131.47,0,0,1-16.57,4.57,105.13,105.13,0,0,0-17.17,5.07,48.49,48.49,0,0,0-13.8,8.94c-8.2,7.46-14.55,16.87-23.81,23.15a51.79,51.79,0,0,1-16,7.27,66.33,66.33,0,0,1-17.54,1.8c-12.7-.12-26.86-2.36-38.48,4.08-.47.27.07,1.19.56,1C56.58,273,68.74,274,80.61,274.29a82.29,82.29,0,0,0,17.74-1.05,53.43,53.43,0,0,0,16.12-5.95c10-5.67,16.85-14.79,24.85-22.8a51.34,51.34,0,0,1,13.74-10.27,86.06,86.06,0,0,1,17-5.61c6.25-1.54,12.54-3,18.53-5.38a45.58,45.58,0,0,0,7.75-3.95,35,35,0,0,0,6.54-5.8C203,213.41,202.9,213.15,202.8,213.25Z" style="fill: rgb(213, 153, 116); transform-origin: 123.772px 245.486px;" id="el94jmbp3df0i" class="animable"></path><g id="el09yfm45f22zn"><path d="M202.8,213.25c-4,3.94-9.4,6.61-14.64,8.59a131.47,131.47,0,0,1-16.57,4.57,105.13,105.13,0,0,0-17.17,5.07,48.49,48.49,0,0,0-13.8,8.94c-8.2,7.46-14.55,16.87-23.81,23.15a51.79,51.79,0,0,1-16,7.27,66.33,66.33,0,0,1-17.54,1.8c-12.7-.12-26.86-2.36-38.48,4.08-.47.27.07,1.19.56,1C56.58,273,68.74,274,80.61,274.29a82.29,82.29,0,0,0,17.74-1.05,53.43,53.43,0,0,0,16.12-5.95c10-5.67,16.85-14.79,24.85-22.8a51.34,51.34,0,0,1,13.74-10.27,86.06,86.06,0,0,1,17-5.61c6.25-1.54,12.54-3,18.53-5.38a45.58,45.58,0,0,0,7.75-3.95,35,35,0,0,0,6.54-5.8C203,213.41,202.9,213.15,202.8,213.25Z" style="fill: rgb(255, 255, 255); opacity: 0.4; transform-origin: 123.772px 245.486px;" class="animable"></path></g></g></g><g id="freepik--sun-1--inject-347" class="animable" style="transform-origin: 224.526px 132.138px;"><path d="M211.25,134.58c0-7.26,3.48-16.25,14.17-15.25,7.23.67,13.27,6.6,13.27,13.87s-6.84,14.17-14.11,14.17S211.25,141.84,211.25,134.58Z" style="fill: rgb(213, 153, 116); transform-origin: 224.97px 133.312px;" id="elto1z4dqavoc" class="animable"></path><g id="el5q8o2bsu3a"><g style="opacity: 0.7; transform-origin: 224.97px 133.312px;" class="animable"><path d="M211.25,134.58c0-7.26,3.48-16.25,14.17-15.25,7.23.67,13.27,6.6,13.27,13.87s-6.84,14.17-14.11,14.17S211.25,141.84,211.25,134.58Z" style="fill: rgb(255, 255, 255); transform-origin: 224.97px 133.312px;" id="eliry8ygefmlc" class="animable"></path></g></g><path d="M213.84,125c5.69-8.58,19.56-5.31,22.79,3.65,3.11,8.59-2.5,16.84-11.41,17.43a15.55,15.55,0,0,1-5.56-.55,10.08,10.08,0,0,1-4.32-2.84,12.31,12.31,0,0,1-3.16-8.16c-.08-1.36,0-2.73-.14-4.09a.54.54,0,0,0-.18-.4c-.25-.19-.57.14-.7.43-.91,2-.65,5.5-.15,7.66A12.73,12.73,0,0,0,223,147.93c10.18.54,18.51-7.62,16-18.08a14.43,14.43,0,0,0-12.72-11.08c-4.45-.49-10.95,1.3-12.7,5.89C213.46,124.82,213.67,125.28,213.84,125Z" style="fill: rgb(69, 90, 100); transform-origin: 225.003px 133.323px;" id="elpupe9ch0xfp" class="animable"></path><path d="M226.47,113.5a20.71,20.71,0,0,0,.26-4.85c0-.5-1-1-1-.27a23.52,23.52,0,0,0,.26,5c0,.23.45.53.51.16Z" style="fill: rgb(69, 90, 100); transform-origin: 226.234px 110.863px;" id="elf4511y5dh8k" class="animable"></path><path d="M236.33,118.54a9.25,9.25,0,0,0,1.33-1.88c.46-.72,1-1.41,1.42-2.12.29-.44-.47-1.17-.77-.73a11.85,11.85,0,0,0-2.3,4.42c0,.17.13.49.32.31Z" style="fill: rgb(69, 90, 100); transform-origin: 237.577px 116.134px;" id="elv6m1r7ajwc" class="animable"></path><path d="M242.51,127.31a2.11,2.11,0,0,0,1-.27c.49-.19,1-.34,1.5-.5a5.9,5.9,0,0,0,2.75-1.36c.3-.35-.3-1.07-.69-.79a10.05,10.05,0,0,1-2.73,1.34c-.7.24-1.85.52-1.9,1.41,0,.07,0,.16.1.17Z" style="fill: rgb(69, 90, 100); transform-origin: 245.141px 125.818px;" id="el82yvmo5r03k" class="animable"></path><path d="M241.59,137.87c0-.21,0-.42,0-.63l-.29.29c.24.51,1.11.71,1.59.89,1,.37,2,.58,3,1,.73.32.86-.65.24-.93a34.84,34.84,0,0,0-4.48-1.43c-.53-.15-.42.65-.06.81Z" style="fill: rgb(69, 90, 100); transform-origin: 243.906px 138.263px;" id="elanc69ttuqcf" class="animable"></path><path d="M231.84,150.44a10.08,10.08,0,0,0,1.39,2.71,3.42,3.42,0,0,0,1.91,1.64.51.51,0,0,0,.44-.91A6.34,6.34,0,0,1,234,152.2a10.74,10.74,0,0,0-1.43-2.09c-.28-.26-.91-.14-.77.33Z" style="fill: rgb(69, 90, 100); transform-origin: 233.794px 152.395px;" id="elaal6jo4tot" class="animable"></path><path d="M220.85,151.39a12.27,12.27,0,0,0-.18,2.78c0,.8-.17,1.38.42,2,.09.08.19.13.29.06.64-.44.42-1.13.41-1.85a12.65,12.65,0,0,0-.19-2.75c-.07-.28-.64-.68-.75-.21Z" style="fill: rgb(69, 90, 100); transform-origin: 221.241px 153.733px;" id="elbnf24zduv5c" class="animable"></path><path d="M210,147.63a5.63,5.63,0,0,0-2.58,1c-.89.52-1.78,1.08-2.63,1.68-.56.4.37,1.15.87.85,1.54-.92,3-2.24,4.75-2.68.53-.14-.07-.87-.41-.88Z" style="fill: rgb(69, 90, 100); transform-origin: 207.618px 149.415px;" id="el7ndgk2f84jf" class="animable"></path><path d="M202.28,136.45a32.43,32.43,0,0,0,5.65-.23c.81,0,.53-1.16-.17-1.18-1.88,0-3.76.37-5.65.42-.68,0-.34.93.17,1Z" style="fill: rgb(69, 90, 100); transform-origin: 205.076px 135.763px;" id="elo1pz0fgxz1s" class="animable"></path><path d="M201.7,123.74a46.53,46.53,0,0,1,6.31,1.1c.83.15.9-.92.15-1-2.2-.38-4.5-1.27-6.75-.89-.47.08,0,.81.29.83Z" style="fill: rgb(69, 90, 100); transform-origin: 204.945px 123.856px;" id="elzoyur00ykfc" class="animable"></path><path d="M211.2,111.42l-.2.07a.34.34,0,0,0-.17.39c.34,1.34,1.56,2.15,2.25,3.29.35.59,1.61.41,1.17-.28a13,13,0,0,0-1.63-1.93,7.24,7.24,0,0,1-.76-.9c-.09-.14-.4-.75-.66-.64Z" style="fill: rgb(69, 90, 100); transform-origin: 212.58px 113.466px;" id="elcyixjjblsv7" class="animable"></path></g><g id="freepik--Emoji--inject-347" class="animable" style="transform-origin: 114.116px 189.615px;"><path d="M117,185.18a5.49,5.49,0,0,1,.74-.78,8.25,8.25,0,0,1,1-.58,3.6,3.6,0,0,1,1.35-.38,6.11,6.11,0,0,1,1.89.22,4.92,4.92,0,0,1,1.72.7c.11.07.08-.17,0-.22a8.75,8.75,0,0,0-1.49-1.49,3.38,3.38,0,0,0-2-.59,4.11,4.11,0,0,0-2.1.56,3.35,3.35,0,0,0-1.5,2.14C116.6,185,116.78,185.43,117,185.18Zm-13.59,3.58a4.85,4.85,0,0,1,1.28-1.35,6.15,6.15,0,0,1,1.62-1,3.46,3.46,0,0,1,1.39-.21,6.29,6.29,0,0,1,1.14.11,5.64,5.64,0,0,1,1,.4c.3.14.28-.34.15-.52a3.34,3.34,0,0,0-2.26-1.33,4,4,0,0,0-2.14.36A3.44,3.44,0,0,0,104,186.6a9,9,0,0,0-.74,2C103.26,188.64,103.34,188.87,103.41,188.76Zm7-16.46a17.7,17.7,0,1,0,21,13.54A17.72,17.72,0,0,0,110.46,172.3Zm7.24,33.38a16.46,16.46,0,1,1,12.6-19.58A16.48,16.48,0,0,1,117.7,205.68ZM125,188.2a2.15,2.15,0,0,0-.67-.35,6,6,0,0,0-.61-.12,1.74,1.74,0,0,0-.32,0,1.77,1.77,0,0,0-.33.08c-.14,0-.07.31,0,.32a6.19,6.19,0,0,1,.62.13l.25.08a11.47,11.47,0,0,1-19.24,4.12l.11-.1a3.68,3.68,0,0,1,.51-.37c.1-.07,0-.35-.08-.32s-.23,0-.34.06a2.49,2.49,0,0,0-.28.15,3.71,3.71,0,0,0-.52.36,2.09,2.09,0,0,0-.46.6,2.57,2.57,0,0,0-.19.41c-.09.27-.19.54.07.78.07.08.22,0,.28,0a1,1,0,0,0,.23-.38l0-.13c0-.09.08-.18.11-.27l0,0v0l.07-.13,0-.06,0,0,0,0,0,0a12,12,0,0,0,20-4.26l.06,0,.12.09,0,0,0,0,.21.2.1.11a.9.9,0,0,0,.36.25.22.22,0,0,0,.27-.09c.13-.33-.07-.54-.27-.74A2.43,2.43,0,0,0,125,188.2Z" style="fill: rgb(69, 90, 100); transform-origin: 114.116px 189.615px;" id="ellki52ybs80c" class="animable"></path></g><g id="freepik--Symbols--inject-347" class="animable" style="transform-origin: 127.077px 226.641px;"><path d="M189.69,240.14c-.54-5.5,7-7.12,9.95-3.14,2.12,2.81.77,7.48-2.86,8.23a3.47,3.47,0,0,1-4.16-2.71,2.77,2.77,0,0,1,.3-2.21,2.48,2.48,0,0,1,3-.91q3,3.18-1.68,2.42c-.24-.18-.27.25-.16.38,2.38,2.8,6.21-1.87,2.16-3.56s-6,3.46-3.48,6.2c3,3.17,7.93.66,8.83-3.09s-1.8-7-5.44-7.62c-4-.69-7.61,1.78-6.6,6.06,0,.15.2.1.18-.05Z" style="fill: rgb(69, 90, 100); transform-origin: 195.571px 240.149px;" id="elcym3kz2re7" class="animable"></path><path d="M71.33,341.57c2.58,1.14,6.28-1.14,8.1-2.8a10.37,10.37,0,0,0,3.16-8.45c-.18-2.69-1.26-5.81-4-6.83-2-.74-4.72-.32-5.83,1.63-2.39,4.2,2.34,10.34,6.38,11.28,6.29,1.47,12.05-3,13.73-8.89,1.17-4.07.92-12.81-5.8-10.29A4.11,4.11,0,0,0,84.9,323c1.44,2.79,5,3.67,7.88,3.22,7.36-1.13,12.14-8.76,10.64-15.82-1.37-6.45-9.53-12.51-15.82-7.95a5.23,5.23,0,0,0-.36,8.42c3.23,2.65,8.41,2.18,12,.65a12.34,12.34,0,0,0,7.31-8.79c.66-3.1-.36-5.33-3.55-5.92-.49-.09-.45.51-.08.66,4.27,1.73,1.48,7.77-.47,9.94A11.88,11.88,0,0,1,93,311.17c-2.52-.14-6.06-1.15-6-4.54,0-2.43,2.67-3.92,4.76-4.1,3.21-.29,7.11,2,8.73,4.68a12,12,0,0,1-2.93,15.38c-3.18,2.57-10.19,4.11-11.54-1.19q1.33-4.75,4.88-2a4.28,4.28,0,0,1,.85,2.17,10,10,0,0,1,0,3c-.58,4.64-3,8.89-7.81,10.11-4.48,1.13-8-1.28-9.35-5.47a4.57,4.57,0,0,1-.21-3.19c1-2.14,4-1.29,5.26.24A8,8,0,0,1,81,331a8.92,8.92,0,0,1-2.94,7.29c-1.5,1.3-4.6,3.35-6.66,2.65-.5-.16-.43.52-.07.67Z" style="fill: rgb(69, 90, 100); transform-origin: 88.8917px 319.339px;" id="el0b4i0msunhnb" class="animable"></path><path d="M162.19,184.81H150.75l-3.17-11.88,5.35,4.72,2.42-10,3.38,9.43L163,171Zm-10.67-1h9.72l.55-9.35-3.35,4.78-2.91-8.1-2,8.36-4.12-3.63Z" style="fill: rgb(69, 90, 100); transform-origin: 155.29px 176.23px;" id="elaieszo2owlt" class="animable"></path><polygon points="65.63 248.08 66.54 241.91 60.38 241 59.47 247.17 53.3 246.26 52.39 252.42 58.56 253.33 57.65 259.5 63.81 260.41 64.72 254.24 70.89 255.15 71.8 248.99 65.63 248.08" style="fill: rgb(213, 153, 116); transform-origin: 62.095px 250.705px;" id="el54ohfau9cbo" class="animable"></polygon><path d="M176.9,123.91a6.57,6.57,0,0,0-3.83,1.3c-.45-1.23-.9-2.47-1.33-3.7.13-.39.26-.79.38-1.18.81-2.75,1.53-6.62-1.3-8.52-1.07-.71-2.66-.54-2.86.93a4.9,4.9,0,0,0,.3,2c.26.93.54,1.85.83,2.77.42,1.34.88,2.66,1.34,4l-.12.32a35.08,35.08,0,0,1-1.91,4.13,11.73,11.73,0,0,0-1.18,3.2,8.59,8.59,0,0,0,.13,3.74c.53,1.92,1.28,3.63,3.6,4.7a10.06,10.06,0,0,0,5.41.43c.24.74.18.6.41,1.35.34,1.11.54,2.21.89,3.32a2.6,2.6,0,0,0,.85,1.48,1.84,1.84,0,0,0,1.24.25,1.73,1.73,0,0,0,1.44-.93,1.69,1.69,0,0,0-.42-1.71,6.49,6.49,0,0,0-1.51-1.08,2.36,2.36,0,0,1-1.29-1.45c-.05-.2-.39-1.52-.43-1.51a8.49,8.49,0,0,0,4.67-3.59,7.65,7.65,0,0,0,1.15-4.39A6.18,6.18,0,0,0,176.9,123.91ZM173.56,130l.63,1.74a1.76,1.76,0,0,1-.62-.18,3,3,0,0,1-1.08-3.82c0-.09.09-.17.13-.26Zm-4-15.14c-.13-.48-.94-3.14.42-2.28a3.88,3.88,0,0,1,1.51,2.66,9.93,9.93,0,0,1-.46,4.27C170.55,118,170.05,116.45,169.6,114.89Zm-1.33,14.56a8,8,0,0,1,.42-1.45,24.33,24.33,0,0,1,1.34-2.82c.35-.7.74-1.18,1-1.91.34,1,.69,1.91,1,2.86a4.44,4.44,0,0,0-.92,4.32,3.5,3.5,0,0,0,3.36,2.3c.4,1.11,1.1,3.11,1.48,4.23a9.82,9.82,0,0,1-2.91.14,5.23,5.23,0,0,1-3.38-1.75,6.4,6.4,0,0,1-1.08-2,9.69,9.69,0,0,1-.47-2.25A6.52,6.52,0,0,1,168.27,129.45Zm13.63,3.18a7.64,7.64,0,0,1-3.75,3.77c-.31.11-.63.21-.94.3-.38-1.11-1.07-3.11-1.47-4.22,1.25-.54,2.45-1.82,2-3.18a1.66,1.66,0,0,0-1.45-1.1c-.42,0-.17.52.12.56,1.25.18.22,1.85-.26,2.27a3,3,0,0,1-.72.49l-.87-2.38-1-2.81a5.36,5.36,0,0,1,6.1-.79A5.66,5.66,0,0,1,181.9,132.63Z" style="fill: rgb(69, 90, 100); transform-origin: 175.221px 127.928px;" id="elllsq4ewc13" class="animable"></path><path d="M120.66,239.46c.32-1.85.6-3.71.82-5.57.09-.73.32-1.51-.24-2.1a4.69,4.69,0,0,0-2.35-.83c-3.87-.92-7.76-2-11.54-3.21-.29-.09-.81,0-.89.38-.67,3.12-1.49,6.2-2.27,9.3-.37,1.46-.71,2.94-1.12,4.4-.06.18-.1.37-.16.55a3.16,3.16,0,0,0-2-.24,1.31,1.31,0,0,0-1,2c.79,1.31,4.2,1.74,4.66-.08.15-.63.1-1.3.25-2s.29-1.17.44-1.76c.32-1.23.63-2.46.94-3.7.21-.8.41-1.6.62-2.4a13.49,13.49,0,0,0,3,1L113,236c1.86.49,3.74,1.07,5.63,1.47-.25,1.57-.51,3.13-.82,4.68-.25,1.24-.51,2.48-.8,3.71a7.82,7.82,0,0,1-.29,1.13c-1.16-.15-3,.11-2.58,1.71s2.4,1.54,3.46.8c1.38-1,1.58-3,1.93-4.55Q120.19,242.23,120.66,239.46ZM113,234.28l-3.24-.84a15.45,15.45,0,0,0-2.65-.6c.28-1.06.56-2.13.86-3.19,2.15.8,4.3,1.57,6.52,2.19,1.28.35,2.57.69,3.87,1l.86.2c-.08.52-.12,1.5-.14,1.67,0,.37-.11.75-.17,1.13C117,235.23,115,234.79,113,234.28Z" style="fill: rgb(69, 90, 100); transform-origin: 110.657px 238.859px;" id="eldhfw5rsu20m" class="animable"></path></g><g id="freepik--Rainbow--inject-347" class="animable" style="transform-origin: 70.8266px 86.7082px;"><path d="M50.07,59.53c-.94-1.41-1.21-5.09-2.74-4.62-.93.29-.15,2.68-1.53,5.15s-4.06,2.65-3.94,3.59,3.88,0,5.06,2,1.29,4.59,2.11,4.47.36-4.7,2.24-5.88,3.65-1,3.53-2.13S51,61,50.07,59.53ZM33.58,77.3c-.59-.89-.76-3.23-1.73-2.93-.59.18-.1,1.7-1,3.26s-2.57,1.69-2.5,2.28,2.46,0,3.21,1.27.82,2.91,1.34,2.83.22-3,1.42-3.73,2.31-.64,2.24-1.34S34.18,78.2,33.58,77.3Z" style="fill: rgb(213, 153, 116); transform-origin: 41.5768px 69.4408px;" id="eliskltga21a" class="animable"></path><g id="elqw8cyz0wcw"><path d="M50.07,59.53c-.94-1.41-1.21-5.09-2.74-4.62-.93.29-.15,2.68-1.53,5.15s-4.06,2.65-3.94,3.59,3.88,0,5.06,2,1.29,4.59,2.11,4.47.36-4.7,2.24-5.88,3.65-1,3.53-2.13S51,61,50.07,59.53ZM33.58,77.3c-.59-.89-.76-3.23-1.73-2.93-.59.18-.1,1.7-1,3.26s-2.57,1.69-2.5,2.28,2.46,0,3.21,1.27.82,2.91,1.34,2.83.22-3,1.42-3.73,2.31-.64,2.24-1.34S34.18,78.2,33.58,77.3Z" style="fill: rgb(255, 255, 255); opacity: 0.6; transform-origin: 41.5768px 69.4408px;" class="animable"></path></g><path d="M59.83,117.37l6.63-.28s1.18-12.68,11.13-15.63c12.93-3.83,15,7.11,15,7.11l7.17-3.65S94,91.76,80.56,93.25,59.31,108.76,59.83,117.37Z" style="fill: rgb(213, 153, 116); transform-origin: 79.7828px 105.251px;" id="elopmv4dmaya" class="animable"></path><g id="ely4hhotl3pf"><g style="opacity: 0.4; transform-origin: 79.7828px 105.251px;" class="animable"><path d="M59.83,117.37l6.63-.28s1.18-12.68,11.13-15.63c12.93-3.83,15,7.11,15,7.11l7.17-3.65S94,91.76,80.56,93.25,59.31,108.76,59.83,117.37Z" style="fill: rgb(255, 255, 255); transform-origin: 79.7828px 105.251px;" id="el1rgo123o4hw" class="animable"></path></g></g><path d="M99.76,104.92l6.32-2.87s-4.16-10.88-13.9-15.29S71.26,82.53,61,93.56a41.23,41.23,0,0,0-10.79,23.87l9.59-.06s-.27-17.47,15.64-23S99.76,104.92,99.76,104.92Z" style="fill: rgb(213, 153, 116); transform-origin: 78.145px 100.747px;" id="el37x6feeqoti" class="animable"></path><g id="el562x1rewglf"><g style="opacity: 0.6; transform-origin: 78.145px 100.747px;" class="animable"><path d="M99.76,104.92l6.32-2.87s-4.16-10.88-13.9-15.29S71.26,82.53,61,93.56a41.23,41.23,0,0,0-10.79,23.87l9.59-.06s-.27-17.47,15.64-23S99.76,104.92,99.76,104.92Z" style="fill: rgb(255, 255, 255); transform-origin: 78.145px 100.747px;" id="elz60i4i0j8w" class="animable"></path></g></g><path d="M41.52,114.65l8.72,2.07S53.94,90.48,74.43,85s31.65,17.06,31.65,17.06l6.74-5S105,70.09,80.26,72.28,41.61,100,41.52,114.65Z" style="fill: rgb(213, 153, 116); transform-origin: 77.17px 94.4367px;" id="elwf2fs2yudm7" class="animable"></path><g id="el2d5xhwiibft"><g style="opacity: 0.8; transform-origin: 77.17px 94.4367px;" class="animable"><path d="M41.52,114.65l8.72,2.07S53.94,90.48,74.43,85s31.65,17.06,31.65,17.06l6.74-5S105,70.09,80.26,72.28,41.61,100,41.52,114.65Z" style="fill: rgb(255, 255, 255); transform-origin: 77.17px 94.4367px;" id="elh8jpky5sph" class="animable"></path></g></g><path d="M59.92,118.45c.66-2.38.3-4.85,1-7.28a20.83,20.83,0,0,1,2.94-6.34,25.81,25.81,0,0,1,11-9.4,19.16,19.16,0,0,1,24.72,10.2c.13.3.92.38.83,0C97.84,94.31,84.13,89.94,74.3,94.11a27.17,27.17,0,0,0-10.88,9,21,21,0,0,0-3.29,6.19,22.43,22.43,0,0,0-.89,4.2c-.16,1.61.33,3.14.24,4.74,0,.17.38.46.44.21Z" style="fill: rgb(69, 90, 100); transform-origin: 79.8124px 105.553px;" id="elxaukaoklgrd" class="animable"></path><path d="M50.67,118.19c1-12.51,9-26.59,21-31.32a24.93,24.93,0,0,1,19,.23,21.93,21.93,0,0,1,8.71,6.19c2.58,3.17,4.47,6.86,7,10,.15.18.71.23.61-.13a28.43,28.43,0,0,0-13.82-17A26.52,26.52,0,0,0,72.53,84.6c-7.26,2.45-12.94,7.79-16.87,14.25a47.32,47.32,0,0,0-4.38,9.8c-1,3-2,6.36-1.38,9.52.07.33.74.41.77,0Z" style="fill: rgb(69, 90, 100); transform-origin: 78.3553px 100.828px;" id="elwre28x1szz" class="animable"></path><path d="M41.85,115.93a127.67,127.67,0,0,1,2.91-13c1.49-4.7,4.39-8.92,7.52-12.69,5.6-6.76,12.43-13.07,21-15.72a30.56,30.56,0,0,1,23.63,2.58c8.08,4.35,12.56,11.55,15.47,20,.14.41,1,.47.92-.05-3.33-18.54-23.22-30-41-24-8.84,2.94-16.07,9.62-21.77,16.8a40.73,40.73,0,0,0-6.88,11.77c-1.4,4.1-3.27,9.87-2.55,14.23.05.28.69.58.77.18Z" style="fill: rgb(69, 90, 100); transform-origin: 77.1228px 93.835px;" id="elnwhbxbxnl0a" class="animable"></path></g><g id="freepik--Stars--inject-347" class="animable" style="transform-origin: 111.821px 169.35px;"><path d="M24.85,144.75c-1.53.1-1,9.44-1.45,9.32s-9.69,2.86-9.93,4.27,9.77,2.81,9.77,2.81-1.94,8.58-.17,9.23,6.45-7.78,6.45-7.78,7.74,4.71,9.19,3.43-4.52-7.69-4.52-7.69,7.74-5.37,6.93-7-9.67,1.26-9.67,1.26S27.43,144.59,24.85,144.75Z" style="fill: rgb(213, 153, 116); transform-origin: 27.3226px 157.582px;" id="elr7wxgwo0ju" class="animable"></path><g id="ele52yy7sqnp6"><g style="opacity: 0.3; transform-origin: 27.3226px 157.582px;" class="animable"><path d="M24.85,144.75c-1.53.1-1,9.44-1.45,9.32s-9.69,2.86-9.93,4.27,9.77,2.81,9.77,2.81-1.94,8.58-.17,9.23,6.45-7.78,6.45-7.78,7.74,4.71,9.19,3.43-4.52-7.69-4.52-7.69,7.74-5.37,6.93-7-9.67,1.26-9.67,1.26S27.43,144.59,24.85,144.75Z" style="fill: rgb(255, 255, 255); transform-origin: 27.3226px 157.582px;" id="elaf8d9vz5sqq" class="animable"></path></g></g><path d="M198.17,171c-1.59.07-3.66,8-3.66,8s-8.6-.86-9.55,0,7.33,6.43,7.33,6.43-3,7.31-1.6,8.27,7.48-5.09,7.48-5.09,7.32,6.4,8.11,5.19-2.54-9.49-2.54-9.49,6.66-3.94,6.43-5.31-8.17-.57-8.17-.57S200.08,170.93,198.17,171Z" style="fill: rgb(213, 153, 116); transform-origin: 197.53px 182.476px;" id="elnf7b1fwwt8e" class="animable"></path><path d="M51.69,176.75c-.76-1.59-3.36-6.65-5.58-5.88s-.33,5.66-1.17,7.14-5.83,2.36-5.18,4.84c.5,1.93,4.13,1.27,5.42,1.63.58.16.09-.67.34.6.21,1,.32,2,.56,3,.18.71.23,1.52.9,1.95,2.86,1.84,3.23-4.07,4.57-4.75s6.14,3.58,7.2.66c.25-.69-1-2.26-1.25-2.69-1.11-1.59-1.66-1.15-1-2.61.5-1.19,4.39-5,2.25-6.31-1.57-.94-6,1.3-7.54,2-.56.27.07,1.12.57.95,1.13-.37,5.55-2.49,6.27-1.76.35.36-2.87,5-3.23,5.6-.12.19,0,.52.2.64.54.43,3.1,2.87,2.18,3.89s-4.85-1.15-5.82-1.47a.43.43,0,0,0-.54.16c-.54,1-1.77,5.46-3.68,3.85-.59-.49-.59-3.27-.76-4.17a.77.77,0,0,0-.47-.55c-1.2-.33-3,.26-4.05-.42-1.42-.9.33-1.77,1.37-2.51.88-.63,1.78-1.21,2.7-1.76a.39.39,0,0,0,.2-.3c-.05-1.3-.36-3.19,0-4.47,1.12-3.62,4,1.4,5.1,3,.23.35.63.09.45-.28Z" style="fill: rgb(69, 90, 100); transform-origin: 49.5448px 180.587px;" id="elo3llg99k4yf" class="animable"></path></g><g id="freepik--flowers--inject-347" class="animable" style="transform-origin: 97.6792px 245.371px;"><path d="M133.76,271.24a3.65,3.65,0,0,0-3.67-.05,3.33,3.33,0,0,0-1.15,2.9,5.58,5.58,0,0,0,4.1,5,9.8,9.8,0,0,0-6.31,2,3.48,3.48,0,0,0-1,1.5,2.84,2.84,0,0,0,.82,2.82,4.78,4.78,0,0,0,3,.91,9.2,9.2,0,0,0,2.9-.4c.91-.27,1.68-.86,2.55-1.14a10.38,10.38,0,0,0-.82,3.42,3.66,3.66,0,0,0,1.1,2.84,3.61,3.61,0,0,0,3.5.67,3.39,3.39,0,0,0,1.1-.57,3.71,3.71,0,0,0,1.35-2.55,5.88,5.88,0,0,0-.26-2.43,9.64,9.64,0,0,0-.8-2.07c1.52,1,2.62,2.28,4.53,2.42a3.36,3.36,0,0,0,2-6.36,7.26,7.26,0,0,0-1.73-.47l-2-.35a6.6,6.6,0,0,0,3.21-5,4,4,0,0,0-.38-2.25c-1.19-2.17-3.55-1.48-5.16-.32-1.82,1.31-2.48,3.67-2.81,5.83.15-.73-1.25-3.27-1.61-4A5,5,0,0,0,133.76,271.24Z" style="fill: rgb(213, 153, 116); transform-origin: 137.146px 281.284px;" id="elesbqleyq6a9" class="animable"></path><path d="M33.68,219.87a2.7,2.7,0,0,0-2.73,0,2.44,2.44,0,0,0-.86,2.16,4.13,4.13,0,0,0,3.05,3.7,7.37,7.37,0,0,0-4.7,1.51,2.55,2.55,0,0,0-.75,1.12,2.14,2.14,0,0,0,.61,2.1,3.59,3.59,0,0,0,2.21.67,6.87,6.87,0,0,0,2.16-.29c.67-.2,1.25-.64,1.89-.86a7.78,7.78,0,0,0-.6,2.55,2.54,2.54,0,0,0,3.42,2.61,2.55,2.55,0,0,0,.82-.42,2.79,2.79,0,0,0,1-1.9A4.61,4.61,0,0,0,39,231a7.23,7.23,0,0,0-.6-1.54c1.13.73,2,1.7,3.37,1.8a2.5,2.5,0,0,0,1.48-4.73,5.17,5.17,0,0,0-1.28-.35l-1.47-.26a4.88,4.88,0,0,0,2.39-3.73,2.91,2.91,0,0,0-.28-1.67c-.89-1.61-2.64-1.1-3.84-.24-1.35,1-1.84,2.74-2.08,4.34.1-.54-.94-2.43-1.2-3A3.71,3.71,0,0,0,33.68,219.87Z" style="fill: rgb(213, 153, 116); transform-origin: 36.1581px 227.386px;" id="elizpg1pz4ck" class="animable"></path><g id="elfg4wf89yfs"><g style="opacity: 0.65; transform-origin: 36.1581px 227.386px;" class="animable"><path d="M33.68,219.87a2.7,2.7,0,0,0-2.73,0,2.44,2.44,0,0,0-.86,2.16,4.13,4.13,0,0,0,3.05,3.7,7.37,7.37,0,0,0-4.7,1.51,2.55,2.55,0,0,0-.75,1.12,2.14,2.14,0,0,0,.61,2.1,3.59,3.59,0,0,0,2.21.67,6.87,6.87,0,0,0,2.16-.29c.67-.2,1.25-.64,1.89-.86a7.78,7.78,0,0,0-.6,2.55,2.54,2.54,0,0,0,3.42,2.61,2.55,2.55,0,0,0,.82-.42,2.79,2.79,0,0,0,1-1.9A4.61,4.61,0,0,0,39,231a7.23,7.23,0,0,0-.6-1.54c1.13.73,2,1.7,3.37,1.8a2.5,2.5,0,0,0,1.48-4.73,5.17,5.17,0,0,0-1.28-.35l-1.47-.26a4.88,4.88,0,0,0,2.39-3.73,2.91,2.91,0,0,0-.28-1.67c-.89-1.61-2.64-1.1-3.84-.24-1.35,1-1.84,2.74-2.08,4.34.1-.54-.94-2.43-1.2-3A3.71,3.71,0,0,0,33.68,219.87Z" style="fill: rgb(255, 255, 255); transform-origin: 36.1581px 227.386px;" id="eltjyo9pj672" class="animable"></path></g></g><path d="M166.57,208.23a5.74,5.74,0,0,0-3.28-2c1.9-1.9.94-5.41-1.43-6.74a4.62,4.62,0,0,0-4.47-.14,3.88,3.88,0,0,0-1.51,1.55,4.21,4.21,0,0,0-.17.39,5.29,5.29,0,0,0-2.41-1.7,4.61,4.61,0,0,0-4.44.58,4.16,4.16,0,0,0-1.33,4,4.84,4.84,0,0,0,1.43,2.48c-2.5.21-4.88,2.1-4.39,4.9a4.29,4.29,0,0,0,2.62,3.05,6.46,6.46,0,0,0,4.36.11,4.8,4.8,0,0,0,1.31,3.5,5.06,5.06,0,0,0,3.64,1.38,4.58,4.58,0,0,0,4.27-4.55,4.28,4.28,0,0,0,2.85,1,4.38,4.38,0,0,0,3.77-2.77A5,5,0,0,0,166.57,208.23Zm.38,4.3c-.74,2.66-4.61,4-6.18,1.27-.19-.32-1.06-.49-1,.08.35,2.14-.95,4.74-3.28,5a3.62,3.62,0,0,1-2.87-1,4.5,4.5,0,0,1-1-3.79c0-.48-.63-.71-1-.58-2.09.76-5.68.95-6.21-2a3.33,3.33,0,0,1,1.14-3,4.57,4.57,0,0,1,3.77-.86.5.5,0,1,0,.25-1A3.73,3.73,0,0,1,149.1,201c1.76-2.07,4.88-1,6.45.81a3.32,3.32,0,0,0,.23,1.05c.07.16.43.46.52.15a.93.93,0,0,1,0-.13c.16.07.33-.1.22-.36l-.06-.14a4.51,4.51,0,0,1,1.46-2.21,3.26,3.26,0,0,1,3.5-.16c2.35,1.24,2.78,4.84.17,6-.61.28.09,1,.51,1C165,207,167.81,209.47,167,212.53Zm-9.47-6.3a.21.21,0,0,0-.1.15c0,.1.07.18.16.24.33.22.71.36,1,.61a1.79,1.79,0,0,1,.58,1.84,2.2,2.2,0,0,1-.84,1.15,4.45,4.45,0,0,1-1.3.62,4,4,0,0,1-.91.21,2.66,2.66,0,0,1-1-.1,2.09,2.09,0,0,1-.88-.5,2.06,2.06,0,0,1-.53-1.6,1.8,1.8,0,0,1,.88-1.53,2.51,2.51,0,0,1,.76-.2l1-.15a.34.34,0,0,0,.14-.05c.25-.23-.8-.47-.93-.48a2.43,2.43,0,0,0-1.15.24,2.7,2.7,0,0,0-1.23,1.18,2.42,2.42,0,0,0,.78,3.21,4.46,4.46,0,0,0,3.63.22,3.75,3.75,0,0,0,2.55-2.24,2,2,0,0,0-.5-1.87,3.2,3.2,0,0,0-1.14-.77C158.31,206.35,157.73,206.1,157.48,206.23Z" style="fill: rgb(213, 153, 116); transform-origin: 156.121px 209.217px;" id="elvk1buoc0sji" class="animable"></path></g><g id="freepik--Hearts--inject-347" class="animable" style="transform-origin: 110.526px 210.522px;"><path d="M181.53,93.49c-.09-3.58-6.68-6.95-8.58-3s4.2,8.64,6.76,10.57c.61.46,1.33.14.63-.39a21.61,21.61,0,0,1-6-7c-.7-1.46-.43-3.5,1.43-3.87,2.31-.46,4.4,1.91,5.37,3.77.14.28.41.18.41-.11Z" style="fill: rgb(69, 90, 100); transform-origin: 177.07px 94.9974px;" id="ellv2sfbpwqsr" class="animable"></path><path d="M181.41,93.73a17.67,17.67,0,0,1,3.91-2.8c1.81-.73,3.87-.43,3.68,2.4-.13,2-2.6,4.17-4.2,5.18a25.71,25.71,0,0,1-5,2.48c-.36.15,0,.6.28.54,3.84-.63,11.73-5.55,9.81-10.34-1.51-3.76-8-.68-8.82,2.1-.05.16,0,.58.29.44Z" style="fill: rgb(69, 90, 100); transform-origin: 184.918px 95.4905px;" id="el4wbnlvgxtoj" class="animable"></path><path d="M187.29,267.32c-1.53-2.65-7.84-3.21-8.1.67-.29,4.18,6.59,5.34,9.5,5.94a.49.49,0,1,0,.18-1c-2.51-.52-6.2-1-7.94-3.11a2.15,2.15,0,0,1,1.24-3.58,5.94,5.94,0,0,1,4.87,1.41c.24.18.34-.2.25-.37Z" style="fill: rgb(69, 90, 100); transform-origin: 184.235px 269.572px;" id="eltqrb8oqpj6" class="animable"></path><path d="M187.26,267.65c.79-1.07,1.2-2.35,2.09-3.39a4.36,4.36,0,0,1,1.53-1.34c1.34-.46,2.08.52,2.21,1.75a7.79,7.79,0,0,1-1.57,4.69c-.86,1.35-2.33,2.38-3,3.79-.12.24.11.83.45.68,3.28-1.44,7.25-7.7,4.69-11.13s-7,1.9-6.7,4.72c0,.13.18.43.33.23Z" style="fill: rgb(69, 90, 100); transform-origin: 190.712px 267.72px;" id="elae81yhaf44q" class="animable"></path><path d="M144.2,107.46s-1.36-9.32-7.58-7.11-3.37,9.25-1,12.77a39.39,39.39,0,0,0,5,6,38.38,38.38,0,0,0,10.93-4.45c3.83-2.44,5.29-6.44,1.9-9.44C150.63,102.64,146.2,104.48,144.2,107.46Z" style="fill: rgb(213, 153, 116); transform-origin: 144.107px 109.566px;" id="elsee84nnkqmj" class="animable"></path><path d="M168.41,250.26s-2.8-7.54-8.76-4.33c-3.65,2-2.77,6.25-.12,9.39a22.18,22.18,0,0,0,7.68,5.87,35.05,35.05,0,0,0,8.27-4.53c5-3.85,4.73-8.77,2.22-10.51S169.69,246.54,168.41,250.26Z" style="fill: rgb(213, 153, 116); transform-origin: 168.337px 253.162px;" id="elub1torx6e4c" class="animable"></path><g id="elvejvb6qip4"><g style="opacity: 0.2; transform-origin: 168.337px 253.162px;" class="animable"><path d="M168.41,250.26s-2.8-7.54-8.76-4.33c-3.65,2-2.77,6.25-.12,9.39a22.18,22.18,0,0,0,7.68,5.87,35.05,35.05,0,0,0,8.27-4.53c5-3.85,4.73-8.77,2.22-10.51S169.69,246.54,168.41,250.26Z" style="fill: rgb(255, 255, 255); transform-origin: 168.337px 253.162px;" id="ele8r06qgh5d9" class="animable"></path></g></g><g id="elpmduoogkma"><path d="M36.09,324.15s-6.41-4.73-9-.77c-1.64,2.54.78,6.53,5,7.63a50.28,50.28,0,0,0,9.1,1.32s3.21-7.45,2.7-11.57-3.89-4.21-6-2.21S36.09,324.15,36.09,324.15Z" style="fill: rgb(255, 255, 255); opacity: 0.5; transform-origin: 35.2588px 324.804px;" class="animable"></path></g><path d="M96.59,129.18s-6.06-5.17-8.88-1.41c-1.82,2.42.3,6.57,4.44,8a50.38,50.38,0,0,0,9,2s3.74-7.2,3.54-11.35-3.58-4.48-5.86-2.64C96.69,125.45,96.59,129.18,96.59,129.18Z" style="fill: rgb(213, 153, 116); transform-origin: 95.8757px 130.241px;" id="elw3q2zy1kbvi" class="animable"></path><path d="M36.8,301.89s-1.72-2.28-4-1.93-2.72,2.17-.82,4.11c1.72,1.75,6.73,2.2,6.73,2.2s2.83-3.33,2.86-5.78-1.76-3.95-3.49-2.6A3.9,3.9,0,0,0,36.8,301.89Z" style="fill: rgb(213, 153, 116); transform-origin: 36.1787px 301.826px;" id="el5l5i4f8dmon" class="animable"></path><path d="M119.13,135.62s-1.31-2.54-3.63-2.57-3.24,2.28-1.22,4.09a19.12,19.12,0,0,0,5.7,3,34.48,34.48,0,0,0,3.79-4.7c1.17-2.31-.8-5.2-2.72-3.57A5.28,5.28,0,0,0,119.13,135.62Z" style="fill: rgb(213, 153, 116); transform-origin: 118.644px 135.767px;" id="elpj3wkv20y9g" class="animable"></path><g id="el1k3e43y24vqi"><path d="M119.13,135.62s-1.31-2.54-3.63-2.57-3.24,2.28-1.22,4.09a19.12,19.12,0,0,0,5.7,3,34.48,34.48,0,0,0,3.79-4.7c1.17-2.31-.8-5.2-2.72-3.57A5.28,5.28,0,0,0,119.13,135.62Z" style="fill: rgb(255, 255, 255); opacity: 0.6; transform-origin: 118.644px 135.767px;" class="animable"></path></g><path d="M58.77,305.49c-.61-3.4-6.22-6-7.82-1.85-1.68,4.31,5,8.47,8,9.91.42.2.85-.25.38-.52-2.62-1.52-5.56-3.21-7-6-.91-1.73-1-4.26,1.47-4.8,2.17-.48,3.87,1.62,4.72,3.29.08.16.35.22.31,0Z" style="fill: rgb(69, 90, 100); transform-origin: 55.1089px 307.552px;" id="el8o9srchtw9c" class="animable"></path><path d="M58.76,305.82a5.57,5.57,0,0,1,2.9-3.2c2.68-1.34,5.4.85,4.3,3.69-1.25,3.2-4.64,4.76-7.13,6.77-.41.33.33.73.66.49,2.67-1.86,9.86-6.1,7.1-10.43a3.89,3.89,0,0,0-5-1.32c-1.4.58-3.43,2.17-3.25,3.85,0,.15.31.39.37.15Z" style="fill: rgb(69, 90, 100); transform-origin: 62.7695px 307.522px;" id="elouqw6jpzafe" class="animable"></path><path d="M87,209.09a5.41,5.41,0,0,0-6.09.07,7.29,7.29,0,0,0-2.31,2.64,7.06,7.06,0,0,0-.71,2.65,6.9,6.9,0,0,0-1.75-2.09,7.1,7.1,0,0,0-3.21-1.43,5.38,5.38,0,0,0-5.55,2.47,6.58,6.58,0,0,0-.21,6.22,11,11,0,0,0,4.84,4.9,63.71,63.71,0,0,0,8.52,3.75.63.63,0,0,0,.54,0h0a.66.66,0,0,0,.25-.17,62.71,62.71,0,0,0,6.15-7,10.94,10.94,0,0,0,2.33-6.48A6.64,6.64,0,0,0,87,209.09Zm1.81,4.64c.41,2.75-.93,5.25-2.48,7.21-1.76,2.24-3.79,4.21-5.6,6.4-2.56-1.23-5.22-2.17-7.76-3.46-2.23-1.13-4.5-2.85-5.28-5.51a5.1,5.1,0,0,1,2.31-6c2.71-1.34,5.93.77,7.81,3,.13.15.25.15.34.09s.15-.08.19-.23c.76-2.81,2.79-6.07,5.82-6A5.14,5.14,0,0,1,88.82,213.73Z" style="fill: rgb(213, 153, 116); transform-origin: 78.1452px 218.259px;" id="eldohr2q9mrbe" class="animable"></path><path d="M36.09,324.15s-6.41-4.73-9-.77c-1.64,2.54.78,6.53,5,7.63a50.28,50.28,0,0,0,9.1,1.32s3.21-7.45,2.7-11.57-3.89-4.21-6-2.21S36.09,324.15,36.09,324.15Z" style="fill: rgb(213, 153, 116); transform-origin: 35.2588px 324.804px;" id="elxv14bglemr9" class="animable"></path></g><g id="freepik--Character--inject-347" class="animable animator-active" style="transform-origin: 299.078px 266.23px;"><g id="freepik--character--inject-347" class="animable" style="transform-origin: 299.078px 266.23px;"><g id="freepik--Bottom--inject-347" class="animable" style="transform-origin: 281.845px 336.977px;"><path d="M252,413.4c.72-3.87-3.07-6.17-4.9-8.31-2.83-3.31-3.78-8.56-3.91-12.62-.16-5.07-.9-8.66,2-13.35,3.4-5.55,8.18-12.08,24.41-28.23l-22.3-10.55c-4.06,7.19-13.33,22-13.33,22l-.85,1.31c-2,2.62-3,4.65-6.09,6.94l-1.13.65c-1.92,1.47-6.89,3.13-6.61,8s2.16,6,4.44,9.88c1.45,2.48,2.5,3.73,2.79,8.57.23,3.9,0,5.59.14,9.09.09,2.94,2.89,7.11,8.45,8.83C243.21,418.08,251.33,417.2,252,413.4Z" style="fill: rgb(255, 168, 167); transform-origin: 244.439px 378.669px;" id="elroh31i87yn" class="animable"></path><path d="M216.46,379.46a55.64,55.64,0,0,0-5.57,10.86l5.83,7.77,4.3-8.21A29.66,29.66,0,0,1,216.46,379.46Z" style="fill: rgb(38, 50, 56); transform-origin: 215.955px 388.775px;" id="elbrdfqk4yvse" class="animable"></path><path d="M216.72,398.09l7.54-.82a6.86,6.86,0,0,0-.94-4.79,9.73,9.73,0,0,0-2.3-2.6Z" id="elhhn5y94am8m" class="animable" style="transform-origin: 220.539px 393.985px;"></path><path d="M217.91,377.61a5.73,5.73,0,0,0-1.4,1.68c-.32.8.28,5.78,2,8.14s4.33,4.83,5.1,8.25-.44,8.75,1.08,13.51,6.23,10.1,16.09,11c7.05.67,9.64-.8,11.92-2.4.73-3.15.61-4-3.32-6.46S217.91,377.61,217.91,377.61Z" style="fill: rgb(38, 50, 56); transform-origin: 234.738px 398.983px;" id="eli2peai3ooi" class="animable"></path><path d="M230.46,364.42c-3,4-4.06,5.5-6.88,7.34-3.42,2.22-4.11,3.09-5.67,5.85-.54,4.2.34,5.89,4.26,11.09,2.69,3.55,3.62,5.92,3.74,10.94.16,6.08-1.82,9,5.59,15,5.77,4.63,18,4.5,21.17,1,2.51-8.39-4.73-7.53-6.79-16.24-1.14-4.83-2.19-10.17-.9-15.08a17.36,17.36,0,0,1,2.09-4.7c.81-1.33,3.29-4.34,1.8-5.93l-1,1.43c-1.76.47-5.68-.19-8.61-2.43-7.05-5.42-6.12-9-6.12-9l.85-1.31C233.26,361.51,232.16,362.16,230.46,364.42Z" style="fill: rgb(55, 71, 79); transform-origin: 235.479px 390.103px;" id="elu405r4j25if" class="animable"></path><path d="M273.47,268.74,290,246.17l35.82-19c.39,11,2.22,19.41-2.7,45-5.12,26.65-17.52,45.53-24.55,53.78s-43.52,40.68-43.52,40.68c-3.66-.53-13.86-8.55-15.15-13.82,0,0,8-14.3,12.7-21.65,6.17-9.6,8-14.19,19.54-22.25C271.24,299,273.47,268.74,273.47,268.74Z" style="fill: rgb(55, 71, 79); transform-origin: 283.188px 296.9px;" id="el468jv5dric1" class="animable"></path><path d="M244.64,351.8l-.75-.47.45-.71c11.09-17.35,21.63-33.47,46.21-38.74l.18.87c-24.21,5.19-34.64,21.14-45.64,38.35Z" style="fill: rgb(38, 50, 56); transform-origin: 267.31px 331.84px;" id="elxm9awbf8an" class="animable"></path><path d="M272.4,336.17l-8.32-20.85.25-.24c.38-.36.78-.72,1.19-1.09l.51-.44c.39-.34.81-.68,1.23-1l.62-.5c.44-.35.92-.72,1.4-1.08l.63-.48.55-.4c.55-.4,1.1-.8,1.7-1.22,0-.24,0-.5-.06-.76l0-.55c0-.13,0-.27,0-.4,0-.44-.05-.9-.06-1.39a.49.49,0,0,0,0-.12c0-.55,0-1.12,0-1.72v-.44c0-.53,0-1.07,0-1.63v-.21c0-.66,0-1.34,0-2,0-.14,0-.27,0-.41,0-.65,0-1.3,0-2v-.15c0-.77,0-1.54.06-2.33v-.13c0-.77.05-1.54.08-2.32h0v0l32.19-26.91c.14-.7,15.34-10.57,15.34-10.57-1.11,9.66-11,14.11-11,14.11L312,305.14a105.43,105.43,0,0,1-13.27,20.61l-.1.13c-.23.27-.5.57-.79.89l-.25.27-.7.75-.4.41-.72.75-.49.49-.77.79-.56.55-.84.83-.62.6-.89.87-.67.65-1,.92-.7.67-1,1-.71.67L286.37,338l-.67.64-1.28,1.19-.58.55-1.53,1.42-.37.34c-3.31,3.08-6.76,6.24-10,9.23A115.09,115.09,0,0,1,272.4,336.17Z" style="fill: rgb(38, 50, 56); transform-origin: 291.895px 303.1px;" id="el3kvn64oqshe" class="animable"></path><path d="M237,357.49s-.35,4.58,5.68,9.28a14.62,14.62,0,0,0,9.56,3.25l7.13-7s-3.8,1-9.76-4.11a18.49,18.49,0,0,1-6.53-12.11Z" style="fill: rgb(69, 90, 100); transform-origin: 248.183px 358.412px;" id="el9s7dyvsf1pf" class="animable"></path><path d="M302.6,436.12c1.91,5.6,8.51,6.84,13.68,5.13,2.92-1,4.32-4.28,6.17-6.48,2.73-3.24,6.76-5.07,10.72-6.59s8.08-2.88,11.41-5.5a18.21,18.21,0,0,0,6-8.72,7.23,7.23,0,0,0,.38-3.38c-.49-2.72-3.48-4.38-6.24-4.38s-5.35,1.22-7.88,2.31a103,103,0,0,1-10.49,3.88,11.61,11.61,0,0,1-3.43.68c-1.85,0-4.65-1.45-5.36-3-1.12-2.52-2.4-30.47-2.38-31.77L288.56,385s10,30.2,11.59,35.3a12.7,12.7,0,0,1,.34,1.51C301.3,426.58,301,431.52,302.6,436.12Z" style="fill: rgb(255, 168, 167); transform-origin: 319.788px 410.131px;" id="elrkwuorgd92" class="animable"></path><path d="M259.74,227.12c-5.44,20.24-7,26.34-3.26,45.39,2.58,13,10.83,34.56,20.75,63.66-.7,16.68,1.81,21.73,5.35,33.34,5.4,17.75,11.94,33.58,11.94,33.58s4.68-7.42,21.9-6.42c-1.06-16.79-2.05-49.72-3.45-61.88-2.08-18.06-8-69.62-8-69.62s22.58-.57,18-38.05Z" style="fill: rgb(55, 71, 79); transform-origin: 289.008px 315.105px;" id="el26tnxhqh0by" class="animable"></path><path d="M300.4,398.81A321.53,321.53,0,0,1,290,367.9a119.84,119.84,0,0,1-3.89-22.38c-.28-4.49-.34-10-.44-12-.34-6.44-3.12-20.08-8.14-35a231.38,231.38,0,0,1-8.3-34.68l.46,0a7.79,7.79,0,0,0,4.92-1.77c4.45-3.49,7.48-12,9-25.32l-.88-.1c-1.48,12.88-4.48,21.43-8.68,24.73a6.9,6.9,0,0,1-5,1.54c-1.85-12.7,1.42-21.81,4.31-29.85.74-2.06,1.44-4,2-6h-.93c-.58,1.86-1.24,3.72-1.95,5.68-2.95,8.21-6.3,17.52-4.31,30.63a222.76,222.76,0,0,0,8.43,35.38c4.78,14.23,7.76,28.47,8.09,34.79.1,1.9.16,7.43.44,11.85a112.2,112.2,0,0,0,4,22.45c2.23,8.44,6.56,21.54,10.37,31.29C299.85,399.06,300.13,398.94,300.4,398.81Z" style="fill: rgb(38, 50, 56); transform-origin: 283.985px 313.105px;" id="eln7rqr7y2rk" class="animable"></path><path d="M349,405.07c-2.36-2.48-7.14-.85-10.21.4-6.49,2.63-8.45,4.43-13.26,5.35-7,1.33-6.75-2.66-6.75-2.66s-5.08-3.69-14.09,1.23c-6.39,3.49-6.34,8-6.34,8a30.72,30.72,0,0,1,2.13,10.65c.25,6.52.83,8.59,1.66,10.43l29.06-19,2.07-.49C339.58,415.59,349,405.07,349,405.07Z" style="fill: rgb(55, 71, 79); transform-origin: 323.675px 421.123px;" id="elgsr9kbi9eyc" class="animable"></path><path d="M352.59,409.81a5.36,5.36,0,0,0-1.82-3.65c-.34-.24-1.51-.93-1.74-1.09-3-2.15-8.72,1.88-13.59,5.88-5.67,4.66-15.5,5.34-20.22,11.82s-10.29,8.79-12.24,11.65a4.87,4.87,0,0,0,.23,6c.27.32,1.25,1.34,1.45,1.54,1.37,1.46,3.9,2.14,6.94,1.71,6.14-.88,10.61-2.6,16-9.52s11.59-3.34,17.69-7.65A16.89,16.89,0,0,0,352.59,409.81Z" style="fill: rgb(38, 50, 56); transform-origin: 327.428px 424.134px;" id="eldfao5p6jjrs" class="animable"></path><path d="M352.59,409.81c-1.36-8.17-9.12-2.93-15.42,2.24-5.67,4.66-15.49,5.34-20.21,11.82s-10.43,8.71-12.24,11.65c-3.3,5.36.74,9,6.88,8.16s10.61-2.6,16-9.52,11.59-3.34,17.69-7.65A16.89,16.89,0,0,0,352.59,409.81Z" id="el4oh7h5akhn2" class="animable" style="transform-origin: 328.17px 424.683px;"></path><path d="M330.66,430.27l-13.7-6.4c-4.72,6.48-10.43,8.71-12.24,11.65a16.81,16.81,0,0,0-2,4.15l2.13,4.63.71.78,0,0h0c1.38,1.42,3.88,2.09,6.9,1.66,6.14-.87,10.61-2.59,16-9.51,1.11-1.43,2.11-2.71,3.06-3.9Z" style="fill: rgb(38, 50, 56); transform-origin: 317.12px 435.369px;" id="elulf03pluw5" class="animable"></path><path d="M305.57,438.61c-3.3,5.36.74,9,6.89,8.15s10.61-2.59,16-9.51c1.11-1.43,2.11-2.71,3.06-3.9L317.82,427C313.1,433.44,307.39,435.66,305.57,438.61Z" id="elutk9phgvox" class="animable" style="transform-origin: 317.955px 436.942px;"></path><path d="M290.85,393.69l4.49,11.87s5.65-6.94,21.23-5.89l-.73-13S300.46,383.44,290.85,393.69Z" style="fill: rgb(69, 90, 100); transform-origin: 303.71px 395.874px;" id="elbaj7pfv8svb" class="animable"></path></g><g id="freepik--Top--inject-347" class="animable" style="transform-origin: 301.383px 194.775px;"><path id="freepik--Hair--inject-347" d="M270.07,105.15c-.81-9.37,16.79-20.78,34.64-10.45,5.19,3,10.45,7.2,12.28,13.15,1.92,6.23-.6,13.76-5.13,18.2a46,46,0,0,1-6.55,5l-9.53,6.48a55.38,55.38,0,0,0-5.53,4.11A27.49,27.49,0,0,0,285,148c-.3.5-.67,1.06-1.25,1.1a1.79,1.79,0,0,1-.95-.31A49.46,49.46,0,0,1,269,138,30.9,30.9,0,0,1,262,123.74C260.68,116.88,261.1,105.92,270.07,105.15Z" style="fill: rgb(38, 50, 56); transform-origin: 289.541px 119.857px;" class="animable"></path><path d="M276.05,108a7.41,7.41,0,0,0,1.28-3.71c0-.48-.68-4.53-.68-4.53a8.61,8.61,0,0,0,4.12-5.13A6.53,6.53,0,0,0,279,88.2a3.8,3.8,0,0,1-1.69,2.88,5.73,5.73,0,0,0-3.42-4.93,7.68,7.68,0,0,0-6.14.14,11.85,11.85,0,0,0-4.74,4.06c-4.64-1.33-10.21.14-12,5.13a6.54,6.54,0,0,0,1.36,6.79,5.47,5.47,0,0,0,1.57,10.8c-.45,2.13-3.65,2.58-4.36,2.73,1.37,1.34,4.38,1.36,6.83.07-.57.3.85,2.37,1.1,2.61a3.41,3.41,0,0,0,2.5,1c2.68.15,5.07.11,7.36-1.53a9.22,9.22,0,0,0,3.78-7,12.49,12.49,0,0,0,2.37-.68,6.43,6.43,0,0,0,2-1.47A8.23,8.23,0,0,0,276.05,108Z" style="fill: rgb(38, 50, 56); transform-origin: 264.532px 102.557px;" id="eluv1537jvr8o" class="animable"></path><path d="M323.64,161.25c4.15,2.8,9,7.48,14.22,12.08,4.47,3.93,8.87,8.14,8.87,8.14,1.64-6,5.12-18.73,5.72-21.26,1.05-3.7,2.54-10.17,2.83-11,2-5.8,6.43-10.27,11-14.23.78-.68,1.56-1.34,2.34-2a11.79,11.79,0,0,0,1.11-1c.32-.35.6-.64,1.14-.38a1.71,1.71,0,0,1,.77,1,5,5,0,0,1-.41,4,24.55,24.55,0,0,1-2.4,3.43c-.64.85.58.86,1.16.77,2.82-.41,6.3-3.32,8.47-5.1a37.66,37.66,0,0,1,4.22-3.56,5.73,5.73,0,0,1,3.26-.89c.77.06,1.47.37,1.3,1.33a3.86,3.86,0,0,1-.88,1.56,4.18,4.18,0,0,0-1.2,3.21,9.87,9.87,0,0,1,.31,2.46c-.12,1.06-.84,2-1.07,3a22.09,22.09,0,0,0,0,2.7,7.91,7.91,0,0,1-1.57,2.83,25.63,25.63,0,0,1-4.52,4.9,27.58,27.58,0,0,1-6.28,4.31c-1.63.87-4.36,1-5.36,3.92s-1,5.94-1.47,17c-.35,8.22,1.08,15.39-7,27.62-1.43,2.16-4.38,4-9.76.38-4.12-2.76-5.84-3.73-8-5.17-2.93-2-21.54-15.37-21.54-15.37-9.3-10.09-10.21-19.22-10.92-29C307.93,156.91,318.24,157.61,323.64,161.25Z" style="fill: rgb(255, 168, 167); transform-origin: 347.623px 169.885px;" id="elihdmkd49dz" class="animable"></path><path d="M346.73,181.47c-1.76,5.66-1.64,11.8-.71,14.66-3.55-5.11-2.14-11.57-1.14-16.41Z" style="fill: rgb(242, 143, 143); transform-origin: 345.236px 187.925px;" id="eloo2wkhznp6d" class="animable"></path><path d="M367.88,144.74a18.53,18.53,0,0,1-4.75,9.07,7.65,7.65,0,0,0,4.2-3.27A7.19,7.19,0,0,0,367.88,144.74Z" style="fill: rgb(242, 143, 143); transform-origin: 365.69px 149.275px;" id="el2fzrvco6p44" class="animable"></path><path d="M244.78,250.71a347.79,347.79,0,0,1,15.07-53.42c10.82-29.43,39-42.09,39-42.09l6.71,1.3s-28.44,16.23-39.24,42.12a264,264,0,0,0-14.87,47.64Z" style="fill: rgb(213, 153, 116); transform-origin: 275.17px 202.955px;" id="elgbrmpptk64i" class="animable"></path><g id="el78gu77lzlyl"><path d="M244.78,250.71a347.79,347.79,0,0,1,15.07-53.42c10.82-29.43,39-42.09,39-42.09l6.71,1.3s-28.44,16.23-39.24,42.12a264,264,0,0,0-14.87,47.64Z" style="fill: rgb(255, 255, 255); opacity: 0.4; transform-origin: 275.17px 202.955px;" class="animable"></path></g><path d="M255.88,241.07c2.14-11.21,4.06-19.8,4-22.26-.4-10.68-3.59-24.64-4.68-30.81-2.39-13.45,4.27-25.66,7.35-28.41l7.13-1.89c2.34-.63,6.12-1.22,9.68-1.82,7.91-1.34,11.22-1.34,14.2-1.12,1.47.11,8.44,1.12,8.44,1.12,2.11.43,6,1,6,1a44.34,44.34,0,0,1,9.61,11.68c3.59,6,5.68,11.1,6.64,24.19,1.23,16.67,2.15,35.66,2.47,47.31C313.05,249,274,251,255.88,241.07Z" style="fill: rgb(245, 245, 245); transform-origin: 290.706px 201.169px;" id="elar4a9rym0pq" class="animable"></path><g id="freepik--Head--inject-347" class="animable" style="transform-origin: 288.758px 133.921px;"><path d="M275.83,151.66c0-2.7.11-12.73.11-12.73,0,.83-4.49,4-8.41,0s-4.52-8.51-2.59-11.56c2.14-3.38,7.45-3.61,10,1.44,1.63,1.77,4.23-.63,2.61-5.62,0-3.58,4.88-7.86,1.66-13.68,9.64-7.52,21.26-8,27.86-3.1a60.3,60.3,0,0,1,4,19.34c.49,11.79-2.21,17.7-5.82,20-2.42,1.52-4.68,2-9.11,2,0,0,0,3-.06,4.72s.72,2.18,2.57,2.64c1.23.31,4.35,1,4.35,1s4.54,6.53-6.94,8.09c-18.29,2.49-26.35-6.46-26.35-6.46s.77-.28,3.63-1.08C275.86,155.9,275.81,154.35,275.83,151.66Z" style="fill: rgb(255, 168, 167); transform-origin: 287.502px 133.921px;" id="elzfzvv2miat8" class="animable"></path><path d="M296.07,147.71c-7.95-.19-15.71-2.19-17.76-5.65,0,0,.28,3.93,3.63,5.56,4.69,2.29,14.1,2.88,14.1,2.88Z" style="fill: rgb(242, 143, 143); transform-origin: 287.19px 146.28px;" id="elk8szrjndne" class="animable"></path><path d="M291.35,134.09l7.12,1.68a3.6,3.6,0,0,1-4.33,2.84A3.82,3.82,0,0,1,291.35,134.09Z" style="fill: rgb(177, 102, 104); transform-origin: 294.866px 136.394px;" id="elzznx0oerx4" class="animable"></path><path d="M291.91,135.66a4,4,0,0,1,4.26,2.82,3.58,3.58,0,0,1-2,.13,3.78,3.78,0,0,1-2.76-2.84A3.33,3.33,0,0,1,291.91,135.66Z" style="fill: rgb(242, 143, 143); transform-origin: 293.79px 137.166px;" id="elahc208w84yw" class="animable"></path><path d="M305.62,114.6l-4.93-.82a2.41,2.41,0,0,1,2.79-2.09A2.62,2.62,0,0,1,305.62,114.6Z" style="fill: rgb(38, 50, 56); transform-origin: 303.165px 113.129px;" id="el1m3ko9dwrqb" class="animable"></path><path d="M285.41,115.29l4.9-1.29a2.44,2.44,0,0,0-3-1.85A2.67,2.67,0,0,0,285.41,115.29Z" style="fill: rgb(38, 50, 56); transform-origin: 287.83px 113.681px;" id="elbnzd4509r8h" class="animable"></path><path d="M287.08,122.77c0,1.14.93-.15,2.08-.12s2.09,1.37,2.09.23a2.14,2.14,0,0,0-2.08-2.12A2,2,0,0,0,287.08,122.77Z" style="fill: rgb(38, 50, 56); transform-origin: 289.165px 122.048px;" id="el8ebvsuczul4" class="animable"></path><path d="M302.26,122.88c.27,1.11.87-.37,2-.62s2.36.83,2.09-.27a2.16,2.16,0,0,0-2.54-1.56A2,2,0,0,0,302.26,122.88Z" style="fill: rgb(38, 50, 56); transform-origin: 304.294px 121.835px;" id="elejo12jpsazu" class="animable"></path><path d="M280.05,117.3l-12,7.79a5.15,5.15,0,0,1,3.95.55l8.63-5.52Z" style="fill: rgb(69, 90, 100); transform-origin: 274.34px 121.47px;" id="elgpwcn8alo3c" class="animable"></path><path d="M312.61,114.13c-3.15-.14-7.39.05-9.92,1.06-2.83,1.14-3.8,2.23-5.39,2.38s-2.84-.76-6-1.39c-2.49-.49-6.84.09-9.94.7-1.07.1-2,.5-2,1.92s1.09,1.48,1.39,2.55c.75,3.72,2,8.32,6.94,8.18,10.14-.16,6.24-9.75,10-9.53,1.36.2,1.33,2.8,2.28,4.58a7.53,7.53,0,0,0,1.39,1.91c3.53,3.24,9.65.84,10.37-2.69.72-1.78.39-4.52,1.16-6.07C313.69,117,314.18,114.4,312.61,114.13ZM294,123.23a6.12,6.12,0,0,1-1.23,2.89,5.54,5.54,0,0,1-4.05,1.94c-2.18.15-4.43-.71-5.15-2.78-.09-.19-.17-.38-.24-.56-.54-1.54-1.35-4.83-.57-5.85,1.4-1.72,8.66-2.13,10.95.16C294.31,119.83,294.23,121.65,294,123.23Zm17.18-2.11c-.17,1.1-.54,3.49-2.56,4.7-2.65,1.59-6.59.45-7.35-2.19-2.05-5.5.05-7,5.61-7.93C311.45,115.36,311.79,116.54,311.15,121.12Z" style="fill: rgb(69, 90, 100); transform-origin: 296.5px 121.811px;" id="elzbzl32da9r" class="animable"></path><path d="M304.08,128.15l-6.32,3.64-1.85-10a2.86,2.86,0,0,1,.68-1.33Z" style="fill: rgb(242, 143, 143); transform-origin: 299.995px 126.125px;" id="elslcooszh6c" class="animable"></path></g><path d="M243.68,252.68c-4.53,11.62-10.68,32.42-7.77,35.59,3.86,4.2,31.61,15.55,35.14,15.7s11.52-6.05,12.38-11.36-2.72-36-2.72-36l-29.3-10.37C249,247.12,245.15,248.93,243.68,252.68Z" style="fill: rgb(213, 153, 116); transform-origin: 259.36px 275.106px;" id="eltainlefvwja" class="animable"></path><g id="el86kbzzm7ali"><path d="M283.43,292.61c-.72,4.48-6.52,9.58-10.44,11-7.79.86-3.5-23.38-1.4-41.48l9.12-5.48S284.28,287.29,283.43,292.61Z" style="opacity: 0.2; transform-origin: 276.034px 280.141px;" class="animable"></path></g><g id="eldwnujes5og"><path d="M253,268.15c-10.16-3.13-10.16-11.44-9.63-14.62l.36-.92c1.48-3.7,5.28-5.5,7.69-6.35l29.3,10.37-9.12,5.48C268.81,266.41,263.16,271.28,253,268.15Z" style="fill: rgb(255, 255, 255); opacity: 0.2; transform-origin: 261.956px 257.703px;" class="animable"></path></g><path d="M252,264.14a2.18,2.18,0,1,0,2.12-2.23A2.19,2.19,0,0,0,252,264.14Z" style="fill: rgb(255, 255, 255); transform-origin: 254.18px 264.089px;" id="elnb2w3ssoncn" class="animable"></path><path d="M295.74,201.1c5.66-26.93,3.09-46.06,3.09-46.06l6.67,1.12s3.11,23.57-2.7,45.28c-7.83,29.29-22.09,55.19-22.09,55.19l-9.12,5.48S291.11,223.09,295.74,201.1Z" style="fill: rgb(213, 153, 116); transform-origin: 288.961px 208.575px;" id="elctant81wavr" class="animable"></path><g id="ellncww3cy7f"><path d="M295.74,201.1c5.66-26.93,3.09-46.06,3.09-46.06l6.67,1.12s3.11,23.57-2.7,45.28c-7.83,29.29-22.09,55.19-22.09,55.19l-9.12,5.48S291.11,223.09,295.74,201.1Z" style="fill: rgb(255, 255, 255); opacity: 0.4; transform-origin: 288.961px 208.575px;" class="animable"></path></g><g id="freepik--Arm--inject-347" class="animable" style="transform-origin: 242.266px 217.978px;"><path d="M259.09,264.23c-2.35-2.55-4.06-4.4-4.34-5.47-.33-1.74,3.78,1.47,5.24,1.87a4.86,4.86,0,0,0,3.65-.12c.75-.28,1.68-1.5,1.3-2.22-.08-.16-.23-.2-.38-.28a46.12,46.12,0,0,1-6.12-4.78,24.94,24.94,0,0,0-5.41-3.68,13.29,13.29,0,0,1-5.82-6.05c-4.2-10-5.93-18.34-8.72-28.38,5.76-6.62,17.54-18,21-22,3.81-4.42,8.46-10.46,8.89-15.55.44-5.36-1.76-16.35-5.85-18-9.3,2.5-10.92,5.39-16.81,12-3.7,4.16-20.91,23.93-26,30.89-3.68,5-5.65,7.35-3,14.18s4.35,8.87,7.35,14.86c2.1,4.2,3.29,5.95,6.82,12.75.67,1.3,1.7,3.38,2.9,5.83s2.51,6,3.47,8.54a48.78,48.78,0,0,0,3.56,7.63c1.3,2.12,5.22,6.93,7.39,7.94.77.36,1.5.25,2.23.62s1.23,1,2,1.3c1.16.48,1.85,0,3.15-.6a2.65,2.65,0,0,1,1.63-.28,8.18,8.18,0,0,1,1.52.67,4.8,4.8,0,0,0,5-1c1.65.56,2.46.84,4.08,1.41a1.1,1.1,0,0,0,.8,0,.54.54,0,0,0,.27-.41,3.11,3.11,0,0,0-.21-2.37,8.52,8.52,0,0,0-3-3.32A87,87,0,0,1,259.09,264.23Z" style="fill: rgb(255, 168, 167); transform-origin: 242.266px 217.978px;" id="elcu518qw7cvi" class="animable"></path></g></g></g></g><defs>     <filter id="active" height="200%">         <feMorphology in="SourceAlpha" result="DILATED" operator="dilate" radius="2"></feMorphology>                <feFlood flood-color="#32DFEC" flood-opacity="1" result="PINK"></feFlood>        <feComposite in="PINK" in2="DILATED" operator="in" result="OUTLINE"></feComposite>        <feMerge>            <feMergeNode in="OUTLINE"></feMergeNode>            <feMergeNode in="SourceGraphic"></feMergeNode>        </feMerge>    </filter>    <filter id="hover" height="200%">        <feMorphology in="SourceAlpha" result="DILATED" operator="dilate" radius="2"></feMorphology>                <feFlood flood-color="#ff0000" flood-opacity="0.5" result="PINK"></feFlood>        <feComposite in="PINK" in2="DILATED" operator="in" result="OUTLINE"></feComposite>        <feMerge>            <feMergeNode in="OUTLINE"></feMergeNode>            <feMergeNode in="SourceGraphic"></feMergeNode>        </feMerge>            <feColorMatrix type="matrix" values="0   0   0   0   0                0   1   0   0   0                0   0   0   0   0                0   0   0   1   0 "></feColorMatrix>    </filter></defs></svg>